<?xml version="1.0" encoding="utf-8" standalone="no"?>
<!DOCTYPE svg PUBLIC "-//W3C//DTD SVG 1.1//EN"
  "http://www.w3.org/Graphics/SVG/1.1/DTD/svg11.dtd">
<svg xmlns:xlink="http://www.w3.org/1999/xlink" width="470.619686pt" height="345.871778pt" viewBox="0 0 470.619686 345.871778" xmlns="http://www.w3.org/2000/svg" version="1.1">
 <metadata>
  <rdf:RDF xmlns:dc="http://purl.org/dc/elements/1.1/" xmlns:cc="http://creativecommons.org/ns#" xmlns:rdf="http://www.w3.org/1999/02/22-rdf-syntax-ns#">
   <cc:Work>
    <dc:type rdf:resource="http://purl.org/dc/dcmitype/StillImage"/>
    <dc:date>2026-06-03T09:33:27.099168</dc:date>
    <dc:format>image/svg+xml</dc:format>
    <dc:creator>
     <cc:Agent>
      <dc:title>Matplotlib v3.10.5, https://matplotlib.org/</dc:title>
     </cc:Agent>
    </dc:creator>
   </cc:Work>
  </rdf:RDF>
 </metadata>
 <defs>
  <style type="text/css">*{stroke-linejoin: round; stroke-linecap: butt}</style>
 </defs>
 <g id="figure_1">
  <g id="patch_1">
   <path d="M 0 345.871778 
L 470.619686 345.871778 
L 470.619686 0 
L 0 0 
z
" style="fill: #ffffff"/>
  </g>
  <g id="axes_1">
   <g id="patch_2">
    <path d="M 61.659686 266.369125 
L 463.419686 266.369125 
L 463.419686 22.433125 
L 61.659686 22.433125 
z
" style="fill: #ffffff"/>
   </g>
   <g id="patch_3">
    <path d="M 79.921504 266.369125 
L 109.736718 266.369125 
L 109.736718 34.049125 
L 79.921504 34.049125 
z
" clip-path="url(#p7d324bb599)" style="fill: #0077bb; stroke: #ffffff; stroke-width: 0.8; stroke-linejoin: miter"/>
   </g>
   <g id="patch_4">
    <path d="M 117.190521 266.369125 
L 147.005735 266.369125 
L 147.005735 35.50693 
L 117.190521 35.50693 
z
" clip-path="url(#p7d324bb599)" style="fill: #0077bb; stroke: #ffffff; stroke-width: 0.8; stroke-linejoin: miter"/>
   </g>
   <g id="patch_5">
    <path d="M 154.459538 266.369125 
L 184.274751 266.369125 
L 184.274751 44.937512 
L 154.459538 44.937512 
z
" clip-path="url(#p7d324bb599)" style="fill: #0077bb; stroke: #ffffff; stroke-width: 0.8; stroke-linejoin: miter"/>
   </g>
   <g id="patch_6">
    <path d="M 191.728555 266.369125 
L 221.543768 266.369125 
L 221.543768 47.11777 
L 191.728555 47.11777 
z
" clip-path="url(#p7d324bb599)" style="fill: #0077bb; stroke: #ffffff; stroke-width: 0.8; stroke-linejoin: miter"/>
   </g>
   <g id="patch_7">
    <path d="M 228.997571 266.369125 
L 258.812785 266.369125 
L 258.812785 48.575575 
L 228.997571 48.575575 
z
" clip-path="url(#p7d324bb599)" style="fill: #0077bb; stroke: #ffffff; stroke-width: 0.8; stroke-linejoin: miter"/>
   </g>
   <g id="patch_8">
    <path d="M 266.266588 266.369125 
L 296.081801 266.369125 
L 296.081801 64.54693 
L 266.266588 64.54693 
z
" clip-path="url(#p7d324bb599)" style="fill: #0077bb; stroke: #ffffff; stroke-width: 0.8; stroke-linejoin: miter"/>
   </g>
   <g id="patch_9">
    <path d="M 303.535605 266.369125 
L 333.350818 266.369125 
L 333.350818 65.269383 
L 303.535605 65.269383 
z
" clip-path="url(#p7d324bb599)" style="fill: #0077bb; stroke: #ffffff; stroke-width: 0.8; stroke-linejoin: miter"/>
   </g>
   <g id="patch_10">
    <path d="M 340.804621 266.369125 
L 370.619835 266.369125 
L 370.619835 66.714287 
L 340.804621 66.714287 
z
" clip-path="url(#p7d324bb599)" style="fill: #0077bb; stroke: #ffffff; stroke-width: 0.8; stroke-linejoin: miter"/>
   </g>
   <g id="patch_11">
    <path d="M 378.073638 266.369125 
L 407.888851 266.369125 
L 407.888851 66.714287 
L 378.073638 66.714287 
z
" clip-path="url(#p7d324bb599)" style="fill: #0077bb; stroke: #ffffff; stroke-width: 0.8; stroke-linejoin: miter"/>
   </g>
   <g id="patch_12">
    <path d="M 415.342655 266.369125 
L 445.157868 266.369125 
L 445.157868 70.35235 
L 415.342655 70.35235 
z
" clip-path="url(#p7d324bb599)" style="fill: #0077bb; stroke: #ffffff; stroke-width: 0.8; stroke-linejoin: miter"/>
   </g>
   <g id="matplotlib.axis_1">
    <g id="xtick_1">
     <g id="line2d_1">
      <path d="M 94.829111 266.369125 
L 94.829111 22.433125 
" clip-path="url(#p7d324bb599)" style="fill: none; stroke: #b0b0b0; stroke-opacity: 0.25; stroke-width: 0.8; stroke-linecap: square"/>
     </g>
     <g id="line2d_2">
      <defs>
       <path id="mc4c4a750c0" d="M 0 0 
L 0 3.5 
" style="stroke: #000000; stroke-width: 0.8"/>
      </defs>
      <g>
       <use xlink:href="#mc4c4a750c0" x="94.829111" y="266.369125" style="stroke: #000000; stroke-width: 0.8"/>
      </g>
     </g>
     <g id="text_1">
      <!-- upstream_exit -->
      <g transform="translate(36.890119 311.262863) rotate(-32) scale(0.09 -0.09)">
       <defs>
        <path id="MicrosoftYaHei-75" d="M 3400 0 
L 2784 0 
L 2784 544 
L 2772 544 
Q 2425 -81 1706 -81 
Q 478 -81 478 1388 
L 478 3456 
L 1084 3456 
L 1084 1478 
Q 1084 425 1891 425 
Q 2291 425 2537 720 
Q 2784 1016 2784 1466 
L 2784 3456 
L 3400 3456 
L 3400 0 
z
" transform="scale(0.015625)"/>
        <path id="MicrosoftYaHei-70" d="M 1159 488 
L 1159 -1591 
L 547 -1591 
L 547 3456 
L 1159 3456 
L 1159 2859 
L 1172 2859 
Q 1578 3538 2359 3538 
Q 3022 3538 3398 3073 
Q 3775 2609 3775 1828 
Q 3775 966 3348 442 
Q 2922 -81 2200 -81 
Q 1534 -81 1172 488 
L 1159 488 
z
M 1156 1425 
Q 1156 1003 1428 714 
Q 1700 425 2109 425 
Q 2597 425 2872 800 
Q 3147 1175 3147 1838 
Q 3147 2397 2890 2714 
Q 2634 3031 2191 3031 
Q 1738 3031 1447 2709 
Q 1156 2388 1156 1884 
L 1156 1425 
z
" transform="scale(0.015625)"/>
        <path id="MicrosoftYaHei-73" d="M 353 747 
Q 816 413 1350 413 
Q 2066 413 2066 881 
Q 2066 1081 1909 1211 
Q 1753 1341 1275 1519 
Q 700 1750 528 1976 
Q 356 2203 356 2525 
Q 356 2984 745 3261 
Q 1134 3538 1703 3538 
Q 2144 3538 2522 3384 
L 2522 2794 
Q 2134 3044 1644 3044 
Q 1350 3044 1165 2916 
Q 981 2788 981 2578 
Q 981 2372 1114 2256 
Q 1247 2141 1703 1959 
Q 2281 1744 2484 1512 
Q 2688 1281 2688 941 
Q 2688 466 2298 192 
Q 1909 -81 1291 -81 
Q 753 -81 353 122 
L 353 747 
z
" transform="scale(0.015625)"/>
        <path id="MicrosoftYaHei-74" d="M 2206 34 
Q 2006 -75 1666 -75 
Q 738 -75 738 953 
L 738 2950 
L 144 2950 
L 144 3456 
L 738 3456 
L 738 4288 
L 1347 4481 
L 1347 3456 
L 2206 3456 
L 2206 2950 
L 1347 2950 
L 1347 1063 
Q 1347 722 1462 575 
Q 1578 428 1847 428 
Q 2053 428 2206 544 
L 2206 34 
z
" transform="scale(0.015625)"/>
        <path id="MicrosoftYaHei-72" d="M 2400 2850 
Q 2247 2959 1978 2959 
Q 1622 2959 1390 2626 
Q 1159 2294 1159 1750 
L 1159 0 
L 547 0 
L 547 3456 
L 1159 3456 
L 1159 2753 
L 1172 2753 
Q 1434 3516 2078 3516 
Q 2288 3516 2400 3469 
L 2400 2850 
z
" transform="scale(0.015625)"/>
        <path id="MicrosoftYaHei-65" d="M 3363 1572 
L 944 1572 
Q 959 1019 1246 717 
Q 1534 416 2050 416 
Q 2631 416 3116 788 
L 3116 241 
Q 2659 -81 1906 -81 
Q 1156 -81 736 394 
Q 316 869 316 1713 
Q 316 2506 777 3022 
Q 1238 3538 1922 3538 
Q 2600 3538 2981 3102 
Q 3363 2666 3363 1881 
L 3363 1572 
z
M 2750 2063 
Q 2747 2531 2528 2787 
Q 2309 3044 1913 3044 
Q 1547 3044 1280 2772 
Q 1013 2500 944 2063 
L 2750 2063 
z
" transform="scale(0.015625)"/>
        <path id="MicrosoftYaHei-61" d="M 628 3216 
Q 1144 3538 1819 3538 
Q 3069 3538 3069 2225 
L 3069 0 
L 2463 0 
L 2463 534 
L 2447 534 
Q 2088 -81 1388 -81 
Q 884 -81 587 191 
Q 291 463 291 925 
Q 291 1894 1438 2053 
L 2463 2197 
Q 2463 3044 1763 3044 
Q 1141 3044 628 2625 
L 628 3216 
z
M 1653 1625 
Q 1228 1569 1067 1412 
Q 906 1256 906 975 
Q 906 728 1081 572 
Q 1256 416 1544 416 
Q 1944 416 2203 697 
Q 2463 978 2463 1403 
L 2463 1734 
L 1653 1625 
z
" transform="scale(0.015625)"/>
        <path id="MicrosoftYaHei-6d" d="M 5522 0 
L 4909 0 
L 4909 1984 
Q 4909 2547 4734 2789 
Q 4559 3031 4159 3031 
Q 3822 3031 3581 2715 
Q 3341 2400 3341 1969 
L 3341 0 
L 2728 0 
L 2728 2047 
Q 2728 3031 1969 3031 
Q 1619 3031 1389 2731 
Q 1159 2431 1159 1966 
L 1159 0 
L 547 0 
L 547 3456 
L 1159 3456 
L 1159 2909 
L 1172 2909 
Q 1541 3538 2250 3538 
Q 2597 3538 2862 3347 
Q 3128 3156 3231 2831 
Q 3616 3538 4381 3538 
Q 5522 3538 5522 2131 
L 5522 0 
z
" transform="scale(0.015625)"/>
        <path id="MicrosoftYaHei-5f" d="M 2869 -1634 
L 0 -1634 
L 0 -1231 
L 2869 -1231 
L 2869 -1634 
z
" transform="scale(0.015625)"/>
        <path id="MicrosoftYaHei-78" d="M 3163 3456 
L 2006 1716 
L 3147 0 
L 2434 0 
L 1775 1100 
Q 1722 1188 1625 1369 
L 1613 1369 
Q 1609 1350 1456 1100 
L 784 0 
L 81 0 
L 1256 1697 
L 134 3456 
L 847 3456 
L 1494 2300 
Q 1553 2194 1638 2025 
L 1650 2025 
L 2491 3456 
L 3163 3456 
z
" transform="scale(0.015625)"/>
        <path id="MicrosoftYaHei-69" d="M 472 4675 
Q 472 4838 583 4948 
Q 694 5059 856 5059 
Q 1022 5059 1136 4950 
Q 1250 4841 1250 4675 
Q 1250 4513 1136 4405 
Q 1022 4297 856 4297 
Q 691 4297 581 4405 
Q 472 4513 472 4675 
z
M 544 0 
L 544 3456 
L 1156 3456 
L 1156 0 
L 544 0 
z
" transform="scale(0.015625)"/>
       </defs>
       <use xlink:href="#MicrosoftYaHei-75"/>
       <use xlink:href="#MicrosoftYaHei-70" transform="translate(61.621094 0)"/>
       <use xlink:href="#MicrosoftYaHei-73" transform="translate(125.488281 0)"/>
       <use xlink:href="#MicrosoftYaHei-74" transform="translate(171.777344 0)"/>
       <use xlink:href="#MicrosoftYaHei-72" transform="translate(209.033203 0)"/>
       <use xlink:href="#MicrosoftYaHei-65" transform="translate(245.841797 0)"/>
       <use xlink:href="#MicrosoftYaHei-61" transform="translate(302.580078 0)"/>
       <use xlink:href="#MicrosoftYaHei-6d" transform="translate(357.853516 0)"/>
       <use xlink:href="#MicrosoftYaHei-5f" transform="translate(451.554688 0)"/>
       <use xlink:href="#MicrosoftYaHei-65" transform="translate(496.378906 0)"/>
       <use xlink:href="#MicrosoftYaHei-78" transform="translate(553.117188 0)"/>
       <use xlink:href="#MicrosoftYaHei-69" transform="translate(603.800781 0)"/>
       <use xlink:href="#MicrosoftYaHei-74" transform="translate(630.412109 0)"/>
      </g>
      <!-- F=1.0, R=4.0, D=0.35 -->
      <g transform="translate(16.772975 336.723122) rotate(-32) scale(0.09 -0.09)">
       <defs>
        <path id="MicrosoftYaHei-46" d="M 3119 4284 
L 1250 4284 
L 1250 2666 
L 2981 2666 
L 2981 2116 
L 1250 2116 
L 1250 0 
L 625 0 
L 625 4841 
L 3119 4841 
L 3119 4284 
z
" transform="scale(0.015625)"/>
        <path id="MicrosoftYaHei-3d" d="M 3972 2497 
L 788 2497 
L 788 2969 
L 3972 2969 
L 3972 2497 
z
M 3972 1053 
L 788 1053 
L 788 1525 
L 3972 1525 
L 3972 1053 
z
" transform="scale(0.015625)"/>
        <path id="MicrosoftYaHei-31" d="M 1781 0 
L 1781 4141 
Q 1638 3997 1295 3819 
Q 953 3641 663 3569 
L 663 4169 
Q 1047 4275 1484 4508 
Q 1922 4741 2156 4947 
L 2388 4947 
L 2388 0 
L 1781 0 
z
" transform="scale(0.015625)"/>
        <path id="MicrosoftYaHei-2e" d="M 372 322 
Q 372 491 487 606 
Q 603 722 775 722 
Q 950 722 1065 605 
Q 1181 488 1181 322 
Q 1181 159 1065 42 
Q 950 -75 772 -75 
Q 600 -75 486 42 
Q 372 159 372 322 
z
" transform="scale(0.015625)"/>
        <path id="MicrosoftYaHei-30" d="M 284 2325 
Q 284 3606 709 4264 
Q 1134 4922 1941 4922 
Q 3478 4922 3478 2441 
Q 3478 1216 3045 567 
Q 2613 -81 1831 -81 
Q 1094 -81 689 534 
Q 284 1150 284 2325 
z
M 909 2353 
Q 909 425 1888 425 
Q 2850 425 2850 2384 
Q 2850 4413 1906 4413 
Q 909 4413 909 2353 
z
" transform="scale(0.015625)"/>
        <path id="MicrosoftYaHei-2c" d="M 1109 778 
L 575 -888 
L 131 -888 
L 519 778 
L 1109 778 
z
" transform="scale(0.015625)"/>
        <path id="MicrosoftYaHei-20" transform="scale(0.015625)"/>
        <path id="MicrosoftYaHei-52" d="M 4159 0 
L 3422 0 
L 2619 1344 
Q 2378 1747 2178 1892 
Q 1978 2038 1700 2038 
L 1250 2038 
L 1250 0 
L 625 0 
L 625 4841 
L 2100 4841 
Q 2806 4841 3206 4500 
Q 3606 4159 3606 3547 
Q 3606 2541 2531 2241 
L 2531 2225 
Q 2731 2141 2876 1984 
Q 3022 1828 3253 1450 
L 4159 0 
z
M 1250 4294 
L 1250 2584 
L 1988 2584 
Q 2416 2584 2683 2834 
Q 2950 3084 2950 3491 
Q 2950 3869 2706 4081 
Q 2463 4294 1997 4294 
L 1250 4294 
z
" transform="scale(0.015625)"/>
        <path id="MicrosoftYaHei-34" d="M 2906 4841 
L 2906 1644 
L 3631 1644 
L 3631 1138 
L 2906 1138 
L 2906 0 
L 2313 0 
L 2313 1138 
L 53 1138 
L 53 1616 
Q 656 2294 1265 3178 
Q 1875 4063 2272 4841 
L 2906 4841 
z
M 741 1644 
L 2313 1644 
L 2313 3950 
Q 1988 3366 1616 2817 
Q 1244 2269 741 1644 
z
" transform="scale(0.015625)"/>
        <path id="MicrosoftYaHei-44" d="M 625 0 
L 625 4841 
L 2006 4841 
Q 3106 4841 3836 4200 
Q 4566 3559 4566 2481 
Q 4566 1356 3836 678 
Q 3106 0 1956 0 
L 625 0 
z
M 1250 4284 
L 1250 553 
L 1953 553 
Q 2875 553 3392 1056 
Q 3909 1559 3909 2466 
Q 3909 3372 3378 3828 
Q 2847 4284 1981 4284 
L 1250 4284 
z
" transform="scale(0.015625)"/>
        <path id="MicrosoftYaHei-33" d="M 447 809 
Q 944 425 1569 425 
Q 2069 425 2361 670 
Q 2653 916 2653 1328 
Q 2653 2247 1338 2247 
L 934 2247 
L 934 2753 
L 1319 2753 
Q 2484 2753 2484 3616 
Q 2484 4413 1594 4413 
Q 1084 4413 634 4069 
L 634 4647 
Q 1109 4922 1744 4922 
Q 2363 4922 2738 4598 
Q 3113 4275 3113 3759 
Q 3113 2809 2144 2538 
L 2144 2525 
Q 2669 2469 2973 2155 
Q 3278 1841 3278 1372 
Q 3278 719 2808 319 
Q 2338 -81 1556 -81 
Q 869 -81 447 175 
L 447 809 
z
" transform="scale(0.015625)"/>
        <path id="MicrosoftYaHei-35" d="M 3294 1494 
Q 3294 784 2823 350 
Q 2353 -84 1559 -84 
Q 878 -84 544 119 
L 544 744 
Q 1034 425 1544 425 
Q 2050 425 2361 704 
Q 2672 984 2672 1447 
Q 2672 1909 2348 2167 
Q 2025 2425 1434 2425 
Q 978 2425 613 2384 
L 791 4841 
L 3053 4841 
L 3053 4303 
L 1306 4303 
L 1206 2931 
L 1647 2950 
Q 2416 2950 2855 2567 
Q 3294 2184 3294 1494 
z
" transform="scale(0.015625)"/>
       </defs>
       <use xlink:href="#MicrosoftYaHei-46"/>
       <use xlink:href="#MicrosoftYaHei-3d" transform="translate(53.125 0)"/>
       <use xlink:href="#MicrosoftYaHei-31" transform="translate(127.294922 0)"/>
       <use xlink:href="#MicrosoftYaHei-2e" transform="translate(185.9375 0)"/>
       <use xlink:href="#MicrosoftYaHei-30" transform="translate(210.009766 0)"/>
       <use xlink:href="#MicrosoftYaHei-2c" transform="translate(268.652344 0)"/>
       <use xlink:href="#MicrosoftYaHei-20" transform="translate(292.724609 0)"/>
       <use xlink:href="#MicrosoftYaHei-52" transform="translate(322.314453 0)"/>
       <use xlink:href="#MicrosoftYaHei-3d" transform="translate(387.597656 0)"/>
       <use xlink:href="#MicrosoftYaHei-34" transform="translate(461.767578 0)"/>
       <use xlink:href="#MicrosoftYaHei-2e" transform="translate(520.410156 0)"/>
       <use xlink:href="#MicrosoftYaHei-30" transform="translate(544.482422 0)"/>
       <use xlink:href="#MicrosoftYaHei-2c" transform="translate(603.125 0)"/>
       <use xlink:href="#MicrosoftYaHei-20" transform="translate(627.197266 0)"/>
       <use xlink:href="#MicrosoftYaHei-44" transform="translate(656.787109 0)"/>
       <use xlink:href="#MicrosoftYaHei-3d" transform="translate(732.958984 0)"/>
       <use xlink:href="#MicrosoftYaHei-30" transform="translate(807.128906 0)"/>
       <use xlink:href="#MicrosoftYaHei-2e" transform="translate(865.771484 0)"/>
       <use xlink:href="#MicrosoftYaHei-33" transform="translate(889.84375 0)"/>
       <use xlink:href="#MicrosoftYaHei-35" transform="translate(948.486328 0)"/>
      </g>
     </g>
    </g>
    <g id="xtick_2">
     <g id="line2d_3">
      <path d="M 132.098128 266.369125 
L 132.098128 22.433125 
" clip-path="url(#p7d324bb599)" style="fill: none; stroke: #b0b0b0; stroke-opacity: 0.25; stroke-width: 0.8; stroke-linecap: square"/>
     </g>
     <g id="line2d_4">
      <g>
       <use xlink:href="#mc4c4a750c0" x="132.098128" y="266.369125" style="stroke: #000000; stroke-width: 0.8"/>
      </g>
     </g>
     <g id="text_2">
      <!-- upstream_exit -->
      <g transform="translate(74.159135 311.262863) rotate(-32) scale(0.09 -0.09)">
       <use xlink:href="#MicrosoftYaHei-75"/>
       <use xlink:href="#MicrosoftYaHei-70" transform="translate(61.621094 0)"/>
       <use xlink:href="#MicrosoftYaHei-73" transform="translate(125.488281 0)"/>
       <use xlink:href="#MicrosoftYaHei-74" transform="translate(171.777344 0)"/>
       <use xlink:href="#MicrosoftYaHei-72" transform="translate(209.033203 0)"/>
       <use xlink:href="#MicrosoftYaHei-65" transform="translate(245.841797 0)"/>
       <use xlink:href="#MicrosoftYaHei-61" transform="translate(302.580078 0)"/>
       <use xlink:href="#MicrosoftYaHei-6d" transform="translate(357.853516 0)"/>
       <use xlink:href="#MicrosoftYaHei-5f" transform="translate(451.554688 0)"/>
       <use xlink:href="#MicrosoftYaHei-65" transform="translate(496.378906 0)"/>
       <use xlink:href="#MicrosoftYaHei-78" transform="translate(553.117188 0)"/>
       <use xlink:href="#MicrosoftYaHei-69" transform="translate(603.800781 0)"/>
       <use xlink:href="#MicrosoftYaHei-74" transform="translate(630.412109 0)"/>
      </g>
      <!-- F=1.2, R=4.0, D=0.35 -->
      <g transform="translate(54.041992 336.723122) rotate(-32) scale(0.09 -0.09)">
       <defs>
        <path id="MicrosoftYaHei-32" d="M 2666 3572 
Q 2666 3963 2419 4186 
Q 2172 4409 1747 4409 
Q 1447 4409 1140 4256 
Q 834 4103 569 3819 
L 569 4413 
Q 806 4659 1107 4790 
Q 1409 4922 1816 4922 
Q 2472 4922 2872 4570 
Q 3272 4219 3272 3619 
Q 3272 3084 3026 2693 
Q 2781 2303 2188 1894 
Q 1581 1475 1376 1294 
Q 1172 1113 1090 947 
Q 1009 781 1009 544 
L 3416 544 
L 3416 0 
L 372 0 
L 372 241 
Q 372 659 486 951 
Q 600 1244 862 1520 
Q 1125 1797 1681 2184 
Q 2250 2584 2458 2886 
Q 2666 3188 2666 3572 
z
" transform="scale(0.015625)"/>
       </defs>
       <use xlink:href="#MicrosoftYaHei-46"/>
       <use xlink:href="#MicrosoftYaHei-3d" transform="translate(53.125 0)"/>
       <use xlink:href="#MicrosoftYaHei-31" transform="translate(127.294922 0)"/>
       <use xlink:href="#MicrosoftYaHei-2e" transform="translate(185.9375 0)"/>
       <use xlink:href="#MicrosoftYaHei-32" transform="translate(210.009766 0)"/>
       <use xlink:href="#MicrosoftYaHei-2c" transform="translate(268.652344 0)"/>
       <use xlink:href="#MicrosoftYaHei-20" transform="translate(292.724609 0)"/>
       <use xlink:href="#MicrosoftYaHei-52" transform="translate(322.314453 0)"/>
       <use xlink:href="#MicrosoftYaHei-3d" transform="translate(387.597656 0)"/>
       <use xlink:href="#MicrosoftYaHei-34" transform="translate(461.767578 0)"/>
       <use xlink:href="#MicrosoftYaHei-2e" transform="translate(520.410156 0)"/>
       <use xlink:href="#MicrosoftYaHei-30" transform="translate(544.482422 0)"/>
       <use xlink:href="#MicrosoftYaHei-2c" transform="translate(603.125 0)"/>
       <use xlink:href="#MicrosoftYaHei-20" transform="translate(627.197266 0)"/>
       <use xlink:href="#MicrosoftYaHei-44" transform="translate(656.787109 0)"/>
       <use xlink:href="#MicrosoftYaHei-3d" transform="translate(732.958984 0)"/>
       <use xlink:href="#MicrosoftYaHei-30" transform="translate(807.128906 0)"/>
       <use xlink:href="#MicrosoftYaHei-2e" transform="translate(865.771484 0)"/>
       <use xlink:href="#MicrosoftYaHei-33" transform="translate(889.84375 0)"/>
       <use xlink:href="#MicrosoftYaHei-35" transform="translate(948.486328 0)"/>
      </g>
     </g>
    </g>
    <g id="xtick_3">
     <g id="line2d_5">
      <path d="M 169.367145 266.369125 
L 169.367145 22.433125 
" clip-path="url(#p7d324bb599)" style="fill: none; stroke: #b0b0b0; stroke-opacity: 0.25; stroke-width: 0.8; stroke-linecap: square"/>
     </g>
     <g id="line2d_6">
      <g>
       <use xlink:href="#mc4c4a750c0" x="169.367145" y="266.369125" style="stroke: #000000; stroke-width: 0.8"/>
      </g>
     </g>
     <g id="text_3">
      <!-- upstream_exit -->
      <g transform="translate(111.428152 311.262863) rotate(-32) scale(0.09 -0.09)">
       <use xlink:href="#MicrosoftYaHei-75"/>
       <use xlink:href="#MicrosoftYaHei-70" transform="translate(61.621094 0)"/>
       <use xlink:href="#MicrosoftYaHei-73" transform="translate(125.488281 0)"/>
       <use xlink:href="#MicrosoftYaHei-74" transform="translate(171.777344 0)"/>
       <use xlink:href="#MicrosoftYaHei-72" transform="translate(209.033203 0)"/>
       <use xlink:href="#MicrosoftYaHei-65" transform="translate(245.841797 0)"/>
       <use xlink:href="#MicrosoftYaHei-61" transform="translate(302.580078 0)"/>
       <use xlink:href="#MicrosoftYaHei-6d" transform="translate(357.853516 0)"/>
       <use xlink:href="#MicrosoftYaHei-5f" transform="translate(451.554688 0)"/>
       <use xlink:href="#MicrosoftYaHei-65" transform="translate(496.378906 0)"/>
       <use xlink:href="#MicrosoftYaHei-78" transform="translate(553.117188 0)"/>
       <use xlink:href="#MicrosoftYaHei-69" transform="translate(603.800781 0)"/>
       <use xlink:href="#MicrosoftYaHei-74" transform="translate(630.412109 0)"/>
      </g>
      <!-- F=0.8, R=4.0, D=0.35 -->
      <g transform="translate(91.311008 336.723122) rotate(-32) scale(0.09 -0.09)">
       <defs>
        <path id="MicrosoftYaHei-38" d="M 306 1350 
Q 306 1769 556 2122 
Q 806 2475 1200 2625 
Q 884 2803 700 3081 
Q 516 3359 516 3684 
Q 516 4028 692 4312 
Q 869 4597 1183 4759 
Q 1497 4922 1875 4922 
Q 2256 4922 2572 4761 
Q 2888 4600 3063 4315 
Q 3238 4031 3238 3684 
Q 3238 3366 3058 3086 
Q 2878 2806 2559 2625 
Q 2953 2472 3200 2119 
Q 3447 1766 3447 1350 
Q 3447 938 3250 611 
Q 3053 284 2690 103 
Q 2328 -78 1875 -78 
Q 1425 -78 1065 103 
Q 706 284 506 612 
Q 306 941 306 1350 
z
M 906 1378 
Q 906 947 1172 687 
Q 1438 428 1878 428 
Q 2309 428 2582 692 
Q 2856 956 2856 1378 
Q 2856 1778 2579 2051 
Q 2303 2325 1878 2325 
Q 1456 2325 1181 2058 
Q 906 1791 906 1378 
z
M 1081 3634 
Q 1081 3309 1312 3076 
Q 1544 2844 1878 2844 
Q 2206 2844 2445 3078 
Q 2684 3313 2684 3634 
Q 2684 3963 2454 4191 
Q 2225 4419 1878 4419 
Q 1534 4419 1307 4195 
Q 1081 3972 1081 3634 
z
" transform="scale(0.015625)"/>
       </defs>
       <use xlink:href="#MicrosoftYaHei-46"/>
       <use xlink:href="#MicrosoftYaHei-3d" transform="translate(53.125 0)"/>
       <use xlink:href="#MicrosoftYaHei-30" transform="translate(127.294922 0)"/>
       <use xlink:href="#MicrosoftYaHei-2e" transform="translate(185.9375 0)"/>
       <use xlink:href="#MicrosoftYaHei-38" transform="translate(210.009766 0)"/>
       <use xlink:href="#MicrosoftYaHei-2c" transform="translate(268.652344 0)"/>
       <use xlink:href="#MicrosoftYaHei-20" transform="translate(292.724609 0)"/>
       <use xlink:href="#MicrosoftYaHei-52" transform="translate(322.314453 0)"/>
       <use xlink:href="#MicrosoftYaHei-3d" transform="translate(387.597656 0)"/>
       <use xlink:href="#MicrosoftYaHei-34" transform="translate(461.767578 0)"/>
       <use xlink:href="#MicrosoftYaHei-2e" transform="translate(520.410156 0)"/>
       <use xlink:href="#MicrosoftYaHei-30" transform="translate(544.482422 0)"/>
       <use xlink:href="#MicrosoftYaHei-2c" transform="translate(603.125 0)"/>
       <use xlink:href="#MicrosoftYaHei-20" transform="translate(627.197266 0)"/>
       <use xlink:href="#MicrosoftYaHei-44" transform="translate(656.787109 0)"/>
       <use xlink:href="#MicrosoftYaHei-3d" transform="translate(732.958984 0)"/>
       <use xlink:href="#MicrosoftYaHei-30" transform="translate(807.128906 0)"/>
       <use xlink:href="#MicrosoftYaHei-2e" transform="translate(865.771484 0)"/>
       <use xlink:href="#MicrosoftYaHei-33" transform="translate(889.84375 0)"/>
       <use xlink:href="#MicrosoftYaHei-35" transform="translate(948.486328 0)"/>
      </g>
     </g>
    </g>
    <g id="xtick_4">
     <g id="line2d_7">
      <path d="M 206.636161 266.369125 
L 206.636161 22.433125 
" clip-path="url(#p7d324bb599)" style="fill: none; stroke: #b0b0b0; stroke-opacity: 0.25; stroke-width: 0.8; stroke-linecap: square"/>
     </g>
     <g id="line2d_8">
      <g>
       <use xlink:href="#mc4c4a750c0" x="206.636161" y="266.369125" style="stroke: #000000; stroke-width: 0.8"/>
      </g>
     </g>
     <g id="text_4">
      <!-- upstream_exit -->
      <g transform="translate(148.697169 311.262863) rotate(-32) scale(0.09 -0.09)">
       <use xlink:href="#MicrosoftYaHei-75"/>
       <use xlink:href="#MicrosoftYaHei-70" transform="translate(61.621094 0)"/>
       <use xlink:href="#MicrosoftYaHei-73" transform="translate(125.488281 0)"/>
       <use xlink:href="#MicrosoftYaHei-74" transform="translate(171.777344 0)"/>
       <use xlink:href="#MicrosoftYaHei-72" transform="translate(209.033203 0)"/>
       <use xlink:href="#MicrosoftYaHei-65" transform="translate(245.841797 0)"/>
       <use xlink:href="#MicrosoftYaHei-61" transform="translate(302.580078 0)"/>
       <use xlink:href="#MicrosoftYaHei-6d" transform="translate(357.853516 0)"/>
       <use xlink:href="#MicrosoftYaHei-5f" transform="translate(451.554688 0)"/>
       <use xlink:href="#MicrosoftYaHei-65" transform="translate(496.378906 0)"/>
       <use xlink:href="#MicrosoftYaHei-78" transform="translate(553.117188 0)"/>
       <use xlink:href="#MicrosoftYaHei-69" transform="translate(603.800781 0)"/>
       <use xlink:href="#MicrosoftYaHei-74" transform="translate(630.412109 0)"/>
      </g>
      <!-- F=1.0, R=4.0, D=0.5 -->
      <g transform="translate(133.055731 333.926391) rotate(-32) scale(0.09 -0.09)">
       <use xlink:href="#MicrosoftYaHei-46"/>
       <use xlink:href="#MicrosoftYaHei-3d" transform="translate(53.125 0)"/>
       <use xlink:href="#MicrosoftYaHei-31" transform="translate(127.294922 0)"/>
       <use xlink:href="#MicrosoftYaHei-2e" transform="translate(185.9375 0)"/>
       <use xlink:href="#MicrosoftYaHei-30" transform="translate(210.009766 0)"/>
       <use xlink:href="#MicrosoftYaHei-2c" transform="translate(268.652344 0)"/>
       <use xlink:href="#MicrosoftYaHei-20" transform="translate(292.724609 0)"/>
       <use xlink:href="#MicrosoftYaHei-52" transform="translate(322.314453 0)"/>
       <use xlink:href="#MicrosoftYaHei-3d" transform="translate(387.597656 0)"/>
       <use xlink:href="#MicrosoftYaHei-34" transform="translate(461.767578 0)"/>
       <use xlink:href="#MicrosoftYaHei-2e" transform="translate(520.410156 0)"/>
       <use xlink:href="#MicrosoftYaHei-30" transform="translate(544.482422 0)"/>
       <use xlink:href="#MicrosoftYaHei-2c" transform="translate(603.125 0)"/>
       <use xlink:href="#MicrosoftYaHei-20" transform="translate(627.197266 0)"/>
       <use xlink:href="#MicrosoftYaHei-44" transform="translate(656.787109 0)"/>
       <use xlink:href="#MicrosoftYaHei-3d" transform="translate(732.958984 0)"/>
       <use xlink:href="#MicrosoftYaHei-30" transform="translate(807.128906 0)"/>
       <use xlink:href="#MicrosoftYaHei-2e" transform="translate(865.771484 0)"/>
       <use xlink:href="#MicrosoftYaHei-35" transform="translate(889.84375 0)"/>
      </g>
     </g>
    </g>
    <g id="xtick_5">
     <g id="line2d_9">
      <path d="M 243.905178 266.369125 
L 243.905178 22.433125 
" clip-path="url(#p7d324bb599)" style="fill: none; stroke: #b0b0b0; stroke-opacity: 0.25; stroke-width: 0.8; stroke-linecap: square"/>
     </g>
     <g id="line2d_10">
      <g>
       <use xlink:href="#mc4c4a750c0" x="243.905178" y="266.369125" style="stroke: #000000; stroke-width: 0.8"/>
      </g>
     </g>
     <g id="text_5">
      <!-- upstream_exit -->
      <g transform="translate(185.966186 311.262863) rotate(-32) scale(0.09 -0.09)">
       <use xlink:href="#MicrosoftYaHei-75"/>
       <use xlink:href="#MicrosoftYaHei-70" transform="translate(61.621094 0)"/>
       <use xlink:href="#MicrosoftYaHei-73" transform="translate(125.488281 0)"/>
       <use xlink:href="#MicrosoftYaHei-74" transform="translate(171.777344 0)"/>
       <use xlink:href="#MicrosoftYaHei-72" transform="translate(209.033203 0)"/>
       <use xlink:href="#MicrosoftYaHei-65" transform="translate(245.841797 0)"/>
       <use xlink:href="#MicrosoftYaHei-61" transform="translate(302.580078 0)"/>
       <use xlink:href="#MicrosoftYaHei-6d" transform="translate(357.853516 0)"/>
       <use xlink:href="#MicrosoftYaHei-5f" transform="translate(451.554688 0)"/>
       <use xlink:href="#MicrosoftYaHei-65" transform="translate(496.378906 0)"/>
       <use xlink:href="#MicrosoftYaHei-78" transform="translate(553.117188 0)"/>
       <use xlink:href="#MicrosoftYaHei-69" transform="translate(603.800781 0)"/>
       <use xlink:href="#MicrosoftYaHei-74" transform="translate(630.412109 0)"/>
      </g>
      <!-- F=1.2, R=4.0, D=0.5 -->
      <g transform="translate(170.324748 333.926391) rotate(-32) scale(0.09 -0.09)">
       <use xlink:href="#MicrosoftYaHei-46"/>
       <use xlink:href="#MicrosoftYaHei-3d" transform="translate(53.125 0)"/>
       <use xlink:href="#MicrosoftYaHei-31" transform="translate(127.294922 0)"/>
       <use xlink:href="#MicrosoftYaHei-2e" transform="translate(185.9375 0)"/>
       <use xlink:href="#MicrosoftYaHei-32" transform="translate(210.009766 0)"/>
       <use xlink:href="#MicrosoftYaHei-2c" transform="translate(268.652344 0)"/>
       <use xlink:href="#MicrosoftYaHei-20" transform="translate(292.724609 0)"/>
       <use xlink:href="#MicrosoftYaHei-52" transform="translate(322.314453 0)"/>
       <use xlink:href="#MicrosoftYaHei-3d" transform="translate(387.597656 0)"/>
       <use xlink:href="#MicrosoftYaHei-34" transform="translate(461.767578 0)"/>
       <use xlink:href="#MicrosoftYaHei-2e" transform="translate(520.410156 0)"/>
       <use xlink:href="#MicrosoftYaHei-30" transform="translate(544.482422 0)"/>
       <use xlink:href="#MicrosoftYaHei-2c" transform="translate(603.125 0)"/>
       <use xlink:href="#MicrosoftYaHei-20" transform="translate(627.197266 0)"/>
       <use xlink:href="#MicrosoftYaHei-44" transform="translate(656.787109 0)"/>
       <use xlink:href="#MicrosoftYaHei-3d" transform="translate(732.958984 0)"/>
       <use xlink:href="#MicrosoftYaHei-30" transform="translate(807.128906 0)"/>
       <use xlink:href="#MicrosoftYaHei-2e" transform="translate(865.771484 0)"/>
       <use xlink:href="#MicrosoftYaHei-35" transform="translate(889.84375 0)"/>
      </g>
     </g>
    </g>
    <g id="xtick_6">
     <g id="line2d_11">
      <path d="M 281.174195 266.369125 
L 281.174195 22.433125 
" clip-path="url(#p7d324bb599)" style="fill: none; stroke: #b0b0b0; stroke-opacity: 0.25; stroke-width: 0.8; stroke-linecap: square"/>
     </g>
     <g id="line2d_12">
      <g>
       <use xlink:href="#mc4c4a750c0" x="281.174195" y="266.369125" style="stroke: #000000; stroke-width: 0.8"/>
      </g>
     </g>
     <g id="text_6">
      <!-- behind_exit -->
      <g transform="translate(232.17946 305.725151) rotate(-32) scale(0.09 -0.09)">
       <defs>
        <path id="MicrosoftYaHei-62" d="M 1159 488 
L 1159 0 
L 547 0 
L 547 5116 
L 1159 5116 
L 1159 2859 
L 1172 2859 
Q 1578 3538 2359 3538 
Q 3009 3538 3392 3080 
Q 3775 2622 3775 1828 
Q 3775 953 3345 436 
Q 2916 -81 2200 -81 
Q 1525 -81 1172 488 
L 1159 488 
z
M 1156 1422 
Q 1156 1003 1428 714 
Q 1700 425 2109 425 
Q 2597 425 2872 800 
Q 3147 1175 3147 1838 
Q 3147 2384 2890 2707 
Q 2634 3031 2191 3031 
Q 1741 3031 1448 2709 
Q 1156 2388 1156 1891 
L 1156 1422 
z
" transform="scale(0.015625)"/>
        <path id="MicrosoftYaHei-68" d="M 3466 0 
L 2856 0 
L 2856 1988 
Q 2856 3031 2081 3031 
Q 1684 3031 1421 2726 
Q 1159 2422 1159 1959 
L 1159 0 
L 547 0 
L 547 5116 
L 1159 5116 
L 1159 2888 
L 1172 2888 
Q 1569 3538 2300 3538 
Q 3466 3538 3466 2128 
L 3466 0 
z
" transform="scale(0.015625)"/>
        <path id="MicrosoftYaHei-6e" d="M 3469 0 
L 2859 0 
L 2859 1966 
Q 2859 3031 2081 3031 
Q 1678 3031 1418 2731 
Q 1159 2431 1159 1972 
L 1159 0 
L 547 0 
L 547 3456 
L 1159 3456 
L 1159 2884 
L 1172 2884 
Q 1563 3538 2306 3538 
Q 2875 3538 3172 3173 
Q 3469 2809 3469 2113 
L 3469 0 
z
" transform="scale(0.015625)"/>
        <path id="MicrosoftYaHei-64" d="M 3547 0 
L 2934 0 
L 2934 575 
L 2922 575 
Q 2544 -81 1747 -81 
Q 1091 -81 703 386 
Q 316 853 316 1647 
Q 316 2503 753 3020 
Q 1191 3538 1897 3538 
Q 2603 3538 2922 2988 
L 2934 2988 
L 2934 5116 
L 3547 5116 
L 3547 0 
z
M 2938 2056 
Q 2938 2472 2664 2751 
Q 2391 3031 1991 3031 
Q 1503 3031 1222 2667 
Q 941 2303 941 1675 
Q 941 1097 1211 761 
Q 1481 425 1931 425 
Q 2375 425 2656 754 
Q 2938 1084 2938 1575 
L 2938 2056 
z
" transform="scale(0.015625)"/>
       </defs>
       <use xlink:href="#MicrosoftYaHei-62"/>
       <use xlink:href="#MicrosoftYaHei-65" transform="translate(63.867188 0)"/>
       <use xlink:href="#MicrosoftYaHei-68" transform="translate(120.605469 0)"/>
       <use xlink:href="#MicrosoftYaHei-69" transform="translate(182.177734 0)"/>
       <use xlink:href="#MicrosoftYaHei-6e" transform="translate(208.789062 0)"/>
       <use xlink:href="#MicrosoftYaHei-64" transform="translate(270.410156 0)"/>
       <use xlink:href="#MicrosoftYaHei-5f" transform="translate(334.375 0)"/>
       <use xlink:href="#MicrosoftYaHei-65" transform="translate(379.199219 0)"/>
       <use xlink:href="#MicrosoftYaHei-78" transform="translate(435.9375 0)"/>
       <use xlink:href="#MicrosoftYaHei-69" transform="translate(486.621094 0)"/>
       <use xlink:href="#MicrosoftYaHei-74" transform="translate(513.232422 0)"/>
      </g>
      <!-- F=1.0, R=5.0, D=0.35 -->
      <g transform="translate(203.118058 336.774403) rotate(-32) scale(0.09 -0.09)">
       <use xlink:href="#MicrosoftYaHei-46"/>
       <use xlink:href="#MicrosoftYaHei-3d" transform="translate(53.125 0)"/>
       <use xlink:href="#MicrosoftYaHei-31" transform="translate(127.294922 0)"/>
       <use xlink:href="#MicrosoftYaHei-2e" transform="translate(185.9375 0)"/>
       <use xlink:href="#MicrosoftYaHei-30" transform="translate(210.009766 0)"/>
       <use xlink:href="#MicrosoftYaHei-2c" transform="translate(268.652344 0)"/>
       <use xlink:href="#MicrosoftYaHei-20" transform="translate(292.724609 0)"/>
       <use xlink:href="#MicrosoftYaHei-52" transform="translate(322.314453 0)"/>
       <use xlink:href="#MicrosoftYaHei-3d" transform="translate(387.597656 0)"/>
       <use xlink:href="#MicrosoftYaHei-35" transform="translate(461.767578 0)"/>
       <use xlink:href="#MicrosoftYaHei-2e" transform="translate(520.410156 0)"/>
       <use xlink:href="#MicrosoftYaHei-30" transform="translate(544.482422 0)"/>
       <use xlink:href="#MicrosoftYaHei-2c" transform="translate(603.125 0)"/>
       <use xlink:href="#MicrosoftYaHei-20" transform="translate(627.197266 0)"/>
       <use xlink:href="#MicrosoftYaHei-44" transform="translate(656.787109 0)"/>
       <use xlink:href="#MicrosoftYaHei-3d" transform="translate(732.958984 0)"/>
       <use xlink:href="#MicrosoftYaHei-30" transform="translate(807.128906 0)"/>
       <use xlink:href="#MicrosoftYaHei-2e" transform="translate(865.771484 0)"/>
       <use xlink:href="#MicrosoftYaHei-33" transform="translate(889.84375 0)"/>
       <use xlink:href="#MicrosoftYaHei-35" transform="translate(948.486328 0)"/>
      </g>
     </g>
    </g>
    <g id="xtick_7">
     <g id="line2d_13">
      <path d="M 318.443211 266.369125 
L 318.443211 22.433125 
" clip-path="url(#p7d324bb599)" style="fill: none; stroke: #b0b0b0; stroke-opacity: 0.25; stroke-width: 0.8; stroke-linecap: square"/>
     </g>
     <g id="line2d_14">
      <g>
       <use xlink:href="#mc4c4a750c0" x="318.443211" y="266.369125" style="stroke: #000000; stroke-width: 0.8"/>
      </g>
     </g>
     <g id="text_7">
      <!-- upstream_exit -->
      <g transform="translate(260.504219 311.262863) rotate(-32) scale(0.09 -0.09)">
       <use xlink:href="#MicrosoftYaHei-75"/>
       <use xlink:href="#MicrosoftYaHei-70" transform="translate(61.621094 0)"/>
       <use xlink:href="#MicrosoftYaHei-73" transform="translate(125.488281 0)"/>
       <use xlink:href="#MicrosoftYaHei-74" transform="translate(171.777344 0)"/>
       <use xlink:href="#MicrosoftYaHei-72" transform="translate(209.033203 0)"/>
       <use xlink:href="#MicrosoftYaHei-65" transform="translate(245.841797 0)"/>
       <use xlink:href="#MicrosoftYaHei-61" transform="translate(302.580078 0)"/>
       <use xlink:href="#MicrosoftYaHei-6d" transform="translate(357.853516 0)"/>
       <use xlink:href="#MicrosoftYaHei-5f" transform="translate(451.554688 0)"/>
       <use xlink:href="#MicrosoftYaHei-65" transform="translate(496.378906 0)"/>
       <use xlink:href="#MicrosoftYaHei-78" transform="translate(553.117188 0)"/>
       <use xlink:href="#MicrosoftYaHei-69" transform="translate(603.800781 0)"/>
       <use xlink:href="#MicrosoftYaHei-74" transform="translate(630.412109 0)"/>
      </g>
      <!-- F=0.8, R=3.0, D=0.35 -->
      <g transform="translate(240.387075 336.723122) rotate(-32) scale(0.09 -0.09)">
       <use xlink:href="#MicrosoftYaHei-46"/>
       <use xlink:href="#MicrosoftYaHei-3d" transform="translate(53.125 0)"/>
       <use xlink:href="#MicrosoftYaHei-30" transform="translate(127.294922 0)"/>
       <use xlink:href="#MicrosoftYaHei-2e" transform="translate(185.9375 0)"/>
       <use xlink:href="#MicrosoftYaHei-38" transform="translate(210.009766 0)"/>
       <use xlink:href="#MicrosoftYaHei-2c" transform="translate(268.652344 0)"/>
       <use xlink:href="#MicrosoftYaHei-20" transform="translate(292.724609 0)"/>
       <use xlink:href="#MicrosoftYaHei-52" transform="translate(322.314453 0)"/>
       <use xlink:href="#MicrosoftYaHei-3d" transform="translate(387.597656 0)"/>
       <use xlink:href="#MicrosoftYaHei-33" transform="translate(461.767578 0)"/>
       <use xlink:href="#MicrosoftYaHei-2e" transform="translate(520.410156 0)"/>
       <use xlink:href="#MicrosoftYaHei-30" transform="translate(544.482422 0)"/>
       <use xlink:href="#MicrosoftYaHei-2c" transform="translate(603.125 0)"/>
       <use xlink:href="#MicrosoftYaHei-20" transform="translate(627.197266 0)"/>
       <use xlink:href="#MicrosoftYaHei-44" transform="translate(656.787109 0)"/>
       <use xlink:href="#MicrosoftYaHei-3d" transform="translate(732.958984 0)"/>
       <use xlink:href="#MicrosoftYaHei-30" transform="translate(807.128906 0)"/>
       <use xlink:href="#MicrosoftYaHei-2e" transform="translate(865.771484 0)"/>
       <use xlink:href="#MicrosoftYaHei-33" transform="translate(889.84375 0)"/>
       <use xlink:href="#MicrosoftYaHei-35" transform="translate(948.486328 0)"/>
      </g>
     </g>
    </g>
    <g id="xtick_8">
     <g id="line2d_15">
      <path d="M 355.712228 266.369125 
L 355.712228 22.433125 
" clip-path="url(#p7d324bb599)" style="fill: none; stroke: #b0b0b0; stroke-opacity: 0.25; stroke-width: 0.8; stroke-linecap: square"/>
     </g>
     <g id="line2d_16">
      <g>
       <use xlink:href="#mc4c4a750c0" x="355.712228" y="266.369125" style="stroke: #000000; stroke-width: 0.8"/>
      </g>
     </g>
     <g id="text_8">
      <!-- upstream_exit -->
      <g transform="translate(297.773236 311.262863) rotate(-32) scale(0.09 -0.09)">
       <use xlink:href="#MicrosoftYaHei-75"/>
       <use xlink:href="#MicrosoftYaHei-70" transform="translate(61.621094 0)"/>
       <use xlink:href="#MicrosoftYaHei-73" transform="translate(125.488281 0)"/>
       <use xlink:href="#MicrosoftYaHei-74" transform="translate(171.777344 0)"/>
       <use xlink:href="#MicrosoftYaHei-72" transform="translate(209.033203 0)"/>
       <use xlink:href="#MicrosoftYaHei-65" transform="translate(245.841797 0)"/>
       <use xlink:href="#MicrosoftYaHei-61" transform="translate(302.580078 0)"/>
       <use xlink:href="#MicrosoftYaHei-6d" transform="translate(357.853516 0)"/>
       <use xlink:href="#MicrosoftYaHei-5f" transform="translate(451.554688 0)"/>
       <use xlink:href="#MicrosoftYaHei-65" transform="translate(496.378906 0)"/>
       <use xlink:href="#MicrosoftYaHei-78" transform="translate(553.117188 0)"/>
       <use xlink:href="#MicrosoftYaHei-69" transform="translate(603.800781 0)"/>
       <use xlink:href="#MicrosoftYaHei-74" transform="translate(630.412109 0)"/>
      </g>
      <!-- F=1.2, R=3.0, D=0.35 -->
      <g transform="translate(277.656092 336.723122) rotate(-32) scale(0.09 -0.09)">
       <use xlink:href="#MicrosoftYaHei-46"/>
       <use xlink:href="#MicrosoftYaHei-3d" transform="translate(53.125 0)"/>
       <use xlink:href="#MicrosoftYaHei-31" transform="translate(127.294922 0)"/>
       <use xlink:href="#MicrosoftYaHei-2e" transform="translate(185.9375 0)"/>
       <use xlink:href="#MicrosoftYaHei-32" transform="translate(210.009766 0)"/>
       <use xlink:href="#MicrosoftYaHei-2c" transform="translate(268.652344 0)"/>
       <use xlink:href="#MicrosoftYaHei-20" transform="translate(292.724609 0)"/>
       <use xlink:href="#MicrosoftYaHei-52" transform="translate(322.314453 0)"/>
       <use xlink:href="#MicrosoftYaHei-3d" transform="translate(387.597656 0)"/>
       <use xlink:href="#MicrosoftYaHei-33" transform="translate(461.767578 0)"/>
       <use xlink:href="#MicrosoftYaHei-2e" transform="translate(520.410156 0)"/>
       <use xlink:href="#MicrosoftYaHei-30" transform="translate(544.482422 0)"/>
       <use xlink:href="#MicrosoftYaHei-2c" transform="translate(603.125 0)"/>
       <use xlink:href="#MicrosoftYaHei-20" transform="translate(627.197266 0)"/>
       <use xlink:href="#MicrosoftYaHei-44" transform="translate(656.787109 0)"/>
       <use xlink:href="#MicrosoftYaHei-3d" transform="translate(732.958984 0)"/>
       <use xlink:href="#MicrosoftYaHei-30" transform="translate(807.128906 0)"/>
       <use xlink:href="#MicrosoftYaHei-2e" transform="translate(865.771484 0)"/>
       <use xlink:href="#MicrosoftYaHei-33" transform="translate(889.84375 0)"/>
       <use xlink:href="#MicrosoftYaHei-35" transform="translate(948.486328 0)"/>
      </g>
     </g>
    </g>
    <g id="xtick_9">
     <g id="line2d_17">
      <path d="M 392.981245 266.369125 
L 392.981245 22.433125 
" clip-path="url(#p7d324bb599)" style="fill: none; stroke: #b0b0b0; stroke-opacity: 0.25; stroke-width: 0.8; stroke-linecap: square"/>
     </g>
     <g id="line2d_18">
      <g>
       <use xlink:href="#mc4c4a750c0" x="392.981245" y="266.369125" style="stroke: #000000; stroke-width: 0.8"/>
      </g>
     </g>
     <g id="text_9">
      <!-- upstream_exit -->
      <g transform="translate(335.042252 311.262863) rotate(-32) scale(0.09 -0.09)">
       <use xlink:href="#MicrosoftYaHei-75"/>
       <use xlink:href="#MicrosoftYaHei-70" transform="translate(61.621094 0)"/>
       <use xlink:href="#MicrosoftYaHei-73" transform="translate(125.488281 0)"/>
       <use xlink:href="#MicrosoftYaHei-74" transform="translate(171.777344 0)"/>
       <use xlink:href="#MicrosoftYaHei-72" transform="translate(209.033203 0)"/>
       <use xlink:href="#MicrosoftYaHei-65" transform="translate(245.841797 0)"/>
       <use xlink:href="#MicrosoftYaHei-61" transform="translate(302.580078 0)"/>
       <use xlink:href="#MicrosoftYaHei-6d" transform="translate(357.853516 0)"/>
       <use xlink:href="#MicrosoftYaHei-5f" transform="translate(451.554688 0)"/>
       <use xlink:href="#MicrosoftYaHei-65" transform="translate(496.378906 0)"/>
       <use xlink:href="#MicrosoftYaHei-78" transform="translate(553.117188 0)"/>
       <use xlink:href="#MicrosoftYaHei-69" transform="translate(603.800781 0)"/>
       <use xlink:href="#MicrosoftYaHei-74" transform="translate(630.412109 0)"/>
      </g>
      <!-- F=1.2, R=3.0, D=0.5 -->
      <g transform="translate(319.400815 333.926391) rotate(-32) scale(0.09 -0.09)">
       <use xlink:href="#MicrosoftYaHei-46"/>
       <use xlink:href="#MicrosoftYaHei-3d" transform="translate(53.125 0)"/>
       <use xlink:href="#MicrosoftYaHei-31" transform="translate(127.294922 0)"/>
       <use xlink:href="#MicrosoftYaHei-2e" transform="translate(185.9375 0)"/>
       <use xlink:href="#MicrosoftYaHei-32" transform="translate(210.009766 0)"/>
       <use xlink:href="#MicrosoftYaHei-2c" transform="translate(268.652344 0)"/>
       <use xlink:href="#MicrosoftYaHei-20" transform="translate(292.724609 0)"/>
       <use xlink:href="#MicrosoftYaHei-52" transform="translate(322.314453 0)"/>
       <use xlink:href="#MicrosoftYaHei-3d" transform="translate(387.597656 0)"/>
       <use xlink:href="#MicrosoftYaHei-33" transform="translate(461.767578 0)"/>
       <use xlink:href="#MicrosoftYaHei-2e" transform="translate(520.410156 0)"/>
       <use xlink:href="#MicrosoftYaHei-30" transform="translate(544.482422 0)"/>
       <use xlink:href="#MicrosoftYaHei-2c" transform="translate(603.125 0)"/>
       <use xlink:href="#MicrosoftYaHei-20" transform="translate(627.197266 0)"/>
       <use xlink:href="#MicrosoftYaHei-44" transform="translate(656.787109 0)"/>
       <use xlink:href="#MicrosoftYaHei-3d" transform="translate(732.958984 0)"/>
       <use xlink:href="#MicrosoftYaHei-30" transform="translate(807.128906 0)"/>
       <use xlink:href="#MicrosoftYaHei-2e" transform="translate(865.771484 0)"/>
       <use xlink:href="#MicrosoftYaHei-35" transform="translate(889.84375 0)"/>
      </g>
     </g>
    </g>
    <g id="xtick_10">
     <g id="line2d_19">
      <path d="M 430.250261 266.369125 
L 430.250261 22.433125 
" clip-path="url(#p7d324bb599)" style="fill: none; stroke: #b0b0b0; stroke-opacity: 0.25; stroke-width: 0.8; stroke-linecap: square"/>
     </g>
     <g id="line2d_20">
      <g>
       <use xlink:href="#mc4c4a750c0" x="430.250261" y="266.369125" style="stroke: #000000; stroke-width: 0.8"/>
      </g>
     </g>
     <g id="text_10">
      <!-- upstream_exit -->
      <g transform="translate(372.311269 311.262863) rotate(-32) scale(0.09 -0.09)">
       <use xlink:href="#MicrosoftYaHei-75"/>
       <use xlink:href="#MicrosoftYaHei-70" transform="translate(61.621094 0)"/>
       <use xlink:href="#MicrosoftYaHei-73" transform="translate(125.488281 0)"/>
       <use xlink:href="#MicrosoftYaHei-74" transform="translate(171.777344 0)"/>
       <use xlink:href="#MicrosoftYaHei-72" transform="translate(209.033203 0)"/>
       <use xlink:href="#MicrosoftYaHei-65" transform="translate(245.841797 0)"/>
       <use xlink:href="#MicrosoftYaHei-61" transform="translate(302.580078 0)"/>
       <use xlink:href="#MicrosoftYaHei-6d" transform="translate(357.853516 0)"/>
       <use xlink:href="#MicrosoftYaHei-5f" transform="translate(451.554688 0)"/>
       <use xlink:href="#MicrosoftYaHei-65" transform="translate(496.378906 0)"/>
       <use xlink:href="#MicrosoftYaHei-78" transform="translate(553.117188 0)"/>
       <use xlink:href="#MicrosoftYaHei-69" transform="translate(603.800781 0)"/>
       <use xlink:href="#MicrosoftYaHei-74" transform="translate(630.412109 0)"/>
      </g>
      <!-- F=0.8, R=3.0, D=0.5 -->
      <g transform="translate(356.669832 333.926391) rotate(-32) scale(0.09 -0.09)">
       <use xlink:href="#MicrosoftYaHei-46"/>
       <use xlink:href="#MicrosoftYaHei-3d" transform="translate(53.125 0)"/>
       <use xlink:href="#MicrosoftYaHei-30" transform="translate(127.294922 0)"/>
       <use xlink:href="#MicrosoftYaHei-2e" transform="translate(185.9375 0)"/>
       <use xlink:href="#MicrosoftYaHei-38" transform="translate(210.009766 0)"/>
       <use xlink:href="#MicrosoftYaHei-2c" transform="translate(268.652344 0)"/>
       <use xlink:href="#MicrosoftYaHei-20" transform="translate(292.724609 0)"/>
       <use xlink:href="#MicrosoftYaHei-52" transform="translate(322.314453 0)"/>
       <use xlink:href="#MicrosoftYaHei-3d" transform="translate(387.597656 0)"/>
       <use xlink:href="#MicrosoftYaHei-33" transform="translate(461.767578 0)"/>
       <use xlink:href="#MicrosoftYaHei-2e" transform="translate(520.410156 0)"/>
       <use xlink:href="#MicrosoftYaHei-30" transform="translate(544.482422 0)"/>
       <use xlink:href="#MicrosoftYaHei-2c" transform="translate(603.125 0)"/>
       <use xlink:href="#MicrosoftYaHei-20" transform="translate(627.197266 0)"/>
       <use xlink:href="#MicrosoftYaHei-44" transform="translate(656.787109 0)"/>
       <use xlink:href="#MicrosoftYaHei-3d" transform="translate(732.958984 0)"/>
       <use xlink:href="#MicrosoftYaHei-30" transform="translate(807.128906 0)"/>
       <use xlink:href="#MicrosoftYaHei-2e" transform="translate(865.771484 0)"/>
       <use xlink:href="#MicrosoftYaHei-35" transform="translate(889.84375 0)"/>
      </g>
     </g>
    </g>
   </g>
   <g id="matplotlib.axis_2">
    <g id="ytick_1">
     <g id="line2d_21">
      <path d="M 61.659686 266.369125 
L 463.419686 266.369125 
" clip-path="url(#p7d324bb599)" style="fill: none; stroke: #b0b0b0; stroke-opacity: 0.25; stroke-width: 0.8; stroke-linecap: square"/>
     </g>
     <g id="line2d_22">
      <defs>
       <path id="md7f4d1d3a7" d="M 0 0 
L -3.5 0 
" style="stroke: #000000; stroke-width: 0.8"/>
      </defs>
      <g>
       <use xlink:href="#md7f4d1d3a7" x="61.659686" y="266.369125" style="stroke: #000000; stroke-width: 0.8"/>
      </g>
     </g>
     <g id="text_11">
      <!-- 0.0 -->
      <g transform="translate(41.937343 269.966312) scale(0.09 -0.09)">
       <use xlink:href="#MicrosoftYaHei-30"/>
       <use xlink:href="#MicrosoftYaHei-2e" transform="translate(58.642578 0)"/>
       <use xlink:href="#MicrosoftYaHei-30" transform="translate(82.714844 0)"/>
      </g>
     </g>
    </g>
    <g id="ytick_2">
     <g id="line2d_23">
      <path d="M 61.659686 234.116793 
L 463.419686 234.116793 
" clip-path="url(#p7d324bb599)" style="fill: none; stroke: #b0b0b0; stroke-opacity: 0.25; stroke-width: 0.8; stroke-linecap: square"/>
     </g>
     <g id="line2d_24">
      <g>
       <use xlink:href="#md7f4d1d3a7" x="61.659686" y="234.116793" style="stroke: #000000; stroke-width: 0.8"/>
      </g>
     </g>
     <g id="text_12">
      <!-- 2.5 -->
      <g transform="translate(41.937343 237.71398) scale(0.09 -0.09)">
       <use xlink:href="#MicrosoftYaHei-32"/>
       <use xlink:href="#MicrosoftYaHei-2e" transform="translate(58.642578 0)"/>
       <use xlink:href="#MicrosoftYaHei-35" transform="translate(82.714844 0)"/>
      </g>
     </g>
    </g>
    <g id="ytick_3">
     <g id="line2d_25">
      <path d="M 61.659686 201.86446 
L 463.419686 201.86446 
" clip-path="url(#p7d324bb599)" style="fill: none; stroke: #b0b0b0; stroke-opacity: 0.25; stroke-width: 0.8; stroke-linecap: square"/>
     </g>
     <g id="line2d_26">
      <g>
       <use xlink:href="#md7f4d1d3a7" x="61.659686" y="201.86446" style="stroke: #000000; stroke-width: 0.8"/>
      </g>
     </g>
     <g id="text_13">
      <!-- 5.0 -->
      <g transform="translate(41.937343 205.461648) scale(0.09 -0.09)">
       <use xlink:href="#MicrosoftYaHei-35"/>
       <use xlink:href="#MicrosoftYaHei-2e" transform="translate(58.642578 0)"/>
       <use xlink:href="#MicrosoftYaHei-30" transform="translate(82.714844 0)"/>
      </g>
     </g>
    </g>
    <g id="ytick_4">
     <g id="line2d_27">
      <path d="M 61.659686 169.612128 
L 463.419686 169.612128 
" clip-path="url(#p7d324bb599)" style="fill: none; stroke: #b0b0b0; stroke-opacity: 0.25; stroke-width: 0.8; stroke-linecap: square"/>
     </g>
     <g id="line2d_28">
      <g>
       <use xlink:href="#md7f4d1d3a7" x="61.659686" y="169.612128" style="stroke: #000000; stroke-width: 0.8"/>
      </g>
     </g>
     <g id="text_14">
      <!-- 7.5 -->
      <g transform="translate(41.937343 173.209316) scale(0.09 -0.09)">
       <defs>
        <path id="MicrosoftYaHei-37" d="M 3422 4463 
Q 2659 3131 2223 1998 
Q 1788 866 1684 0 
L 1047 0 
Q 1163 853 1594 1947 
Q 2025 3041 2747 4300 
L 347 4300 
L 347 4841 
L 3422 4841 
L 3422 4463 
z
" transform="scale(0.015625)"/>
       </defs>
       <use xlink:href="#MicrosoftYaHei-37"/>
       <use xlink:href="#MicrosoftYaHei-2e" transform="translate(58.642578 0)"/>
       <use xlink:href="#MicrosoftYaHei-35" transform="translate(82.714844 0)"/>
      </g>
     </g>
    </g>
    <g id="ytick_5">
     <g id="line2d_29">
      <path d="M 61.659686 137.359796 
L 463.419686 137.359796 
" clip-path="url(#p7d324bb599)" style="fill: none; stroke: #b0b0b0; stroke-opacity: 0.25; stroke-width: 0.8; stroke-linecap: square"/>
     </g>
     <g id="line2d_30">
      <g>
       <use xlink:href="#md7f4d1d3a7" x="61.659686" y="137.359796" style="stroke: #000000; stroke-width: 0.8"/>
      </g>
     </g>
     <g id="text_15">
      <!-- 10.0 -->
      <g transform="translate(36.659686 140.956983) scale(0.09 -0.09)">
       <use xlink:href="#MicrosoftYaHei-31"/>
       <use xlink:href="#MicrosoftYaHei-30" transform="translate(58.642578 0)"/>
       <use xlink:href="#MicrosoftYaHei-2e" transform="translate(117.285156 0)"/>
       <use xlink:href="#MicrosoftYaHei-30" transform="translate(141.357422 0)"/>
      </g>
     </g>
    </g>
    <g id="ytick_6">
     <g id="line2d_31">
      <path d="M 61.659686 105.107464 
L 463.419686 105.107464 
" clip-path="url(#p7d324bb599)" style="fill: none; stroke: #b0b0b0; stroke-opacity: 0.25; stroke-width: 0.8; stroke-linecap: square"/>
     </g>
     <g id="line2d_32">
      <g>
       <use xlink:href="#md7f4d1d3a7" x="61.659686" y="105.107464" style="stroke: #000000; stroke-width: 0.8"/>
      </g>
     </g>
     <g id="text_16">
      <!-- 12.5 -->
      <g transform="translate(36.659686 108.704651) scale(0.09 -0.09)">
       <use xlink:href="#MicrosoftYaHei-31"/>
       <use xlink:href="#MicrosoftYaHei-32" transform="translate(58.642578 0)"/>
       <use xlink:href="#MicrosoftYaHei-2e" transform="translate(117.285156 0)"/>
       <use xlink:href="#MicrosoftYaHei-35" transform="translate(141.357422 0)"/>
      </g>
     </g>
    </g>
    <g id="ytick_7">
     <g id="line2d_33">
      <path d="M 61.659686 72.855131 
L 463.419686 72.855131 
" clip-path="url(#p7d324bb599)" style="fill: none; stroke: #b0b0b0; stroke-opacity: 0.25; stroke-width: 0.8; stroke-linecap: square"/>
     </g>
     <g id="line2d_34">
      <g>
       <use xlink:href="#md7f4d1d3a7" x="61.659686" y="72.855131" style="stroke: #000000; stroke-width: 0.8"/>
      </g>
     </g>
     <g id="text_17">
      <!-- 15.0 -->
      <g transform="translate(36.659686 76.452319) scale(0.09 -0.09)">
       <use xlink:href="#MicrosoftYaHei-31"/>
       <use xlink:href="#MicrosoftYaHei-35" transform="translate(58.642578 0)"/>
       <use xlink:href="#MicrosoftYaHei-2e" transform="translate(117.285156 0)"/>
       <use xlink:href="#MicrosoftYaHei-30" transform="translate(141.357422 0)"/>
      </g>
     </g>
    </g>
    <g id="ytick_8">
     <g id="line2d_35">
      <path d="M 61.659686 40.602799 
L 463.419686 40.602799 
" clip-path="url(#p7d324bb599)" style="fill: none; stroke: #b0b0b0; stroke-opacity: 0.25; stroke-width: 0.8; stroke-linecap: square"/>
     </g>
     <g id="line2d_36">
      <g>
       <use xlink:href="#md7f4d1d3a7" x="61.659686" y="40.602799" style="stroke: #000000; stroke-width: 0.8"/>
      </g>
     </g>
     <g id="text_18">
      <!-- 17.5 -->
      <g transform="translate(36.659686 44.199986) scale(0.09 -0.09)">
       <use xlink:href="#MicrosoftYaHei-31"/>
       <use xlink:href="#MicrosoftYaHei-37" transform="translate(58.642578 0)"/>
       <use xlink:href="#MicrosoftYaHei-2e" transform="translate(117.285156 0)"/>
       <use xlink:href="#MicrosoftYaHei-35" transform="translate(141.357422 0)"/>
      </g>
     </g>
    </g>
    <g id="text_19">
     <!-- 相比无机器人减少比例（%） -->
     <g transform="translate(30.173749 208.849562) rotate(-90) scale(0.1 -0.1)">
      <defs>
       <path id="MicrosoftYaHei-76f8" d="M 2738 4891 
L 6025 4891 
L 6025 -822 
L 5550 -822 
L 5550 -397 
L 3213 -397 
L 3213 -822 
L 2738 -822 
L 2738 4891 
z
M 94 1409 
Q 784 2372 1128 3622 
L 169 3622 
L 169 4041 
L 1138 4041 
L 1138 5284 
L 1594 5284 
L 1594 4041 
L 2506 4041 
L 2506 3622 
L 1594 3622 
L 1594 2534 
L 1844 2791 
Q 2275 2372 2638 1984 
L 2300 1653 
Q 1956 2059 1594 2444 
L 1594 -809 
L 1138 -809 
L 1138 2444 
Q 800 1516 319 866 
Q 225 1134 94 1409 
z
M 3213 28 
L 5550 28 
L 5550 1241 
L 3213 1241 
L 3213 28 
z
M 5550 4466 
L 3213 4466 
L 3213 3266 
L 5550 3266 
L 5550 4466 
z
M 3213 1653 
L 5550 1653 
L 5550 2853 
L 3213 2853 
L 3213 1653 
z
" transform="scale(0.015625)"/>
       <path id="MicrosoftYaHei-6bd4" d="M 3225 5316 
L 3744 5316 
L 3744 2672 
Q 4959 3550 5744 4509 
L 6188 4178 
Q 5175 3063 3744 2056 
L 3744 247 
Q 3744 -166 4106 -166 
L 5175 -166 
Q 5588 -166 5650 203 
Q 5725 678 5763 1247 
Q 6025 1147 6300 1066 
Q 6244 484 6150 22 
Q 6019 -622 5319 -622 
L 3944 -622 
Q 3225 -622 3225 159 
L 3225 5316 
z
M 1063 5153 
L 1063 3278 
L 2825 3278 
L 2825 2809 
L 1063 2809 
L 1063 153 
Q 1713 428 2763 928 
Q 2763 634 2788 366 
Q 1869 -3 1231 -328 
Q 956 -472 725 -672 
L 344 -184 
Q 544 -34 544 272 
L 544 5153 
L 1063 5153 
z
" transform="scale(0.015625)"/>
       <path id="MicrosoftYaHei-65e0" d="M 200 2878 
L 2650 2878 
Q 2781 3528 2806 4328 
L 675 4328 
L 675 4816 
L 5750 4816 
L 5750 4328 
L 3331 4328 
Q 3288 3528 3169 2878 
L 6225 2878 
L 6225 2391 
L 3063 2391 
Q 2588 278 450 -884 
Q 313 -672 113 -441 
Q 1975 491 2538 2391 
L 200 2391 
L 200 2878 
z
M 3400 1941 
L 3906 1941 
L 3906 297 
Q 3906 -197 4363 -197 
L 5219 -197 
Q 5644 -197 5700 172 
Q 5750 528 5775 1097 
Q 6013 1009 6300 916 
Q 6238 297 6188 -16 
Q 6106 -641 5300 -641 
L 4219 -641 
Q 3400 -641 3400 222 
L 3400 1941 
z
" transform="scale(0.015625)"/>
       <path id="MicrosoftYaHei-673a" d="M 3375 4434 
L 3375 2366 
Q 3375 128 2256 -878 
Q 2081 -666 1888 -453 
Q 2875 416 2875 2253 
L 2875 4909 
L 5200 4909 
L 5200 209 
Q 5200 -103 5419 -103 
L 5563 -103 
Q 5763 -103 5819 247 
Q 5881 728 5906 1284 
Q 6125 1178 6381 1084 
Q 6325 466 6269 72 
Q 6169 -591 5631 -591 
L 5300 -591 
Q 4700 -591 4700 122 
L 4700 4434 
L 3375 4434 
z
M 81 1403 
Q 781 2447 1078 3653 
L 144 3653 
L 144 4078 
L 1119 4078 
L 1119 5309 
L 1569 5309 
L 1569 4078 
L 2444 4078 
L 2444 3653 
L 1569 3653 
L 1569 2616 
L 1819 2866 
Q 2300 2428 2575 2153 
L 2238 1809 
Q 1853 2234 1569 2516 
L 1569 -784 
L 1119 -784 
L 1119 2566 
Q 784 1506 288 853 
Q 188 1134 81 1403 
z
" transform="scale(0.015625)"/>
       <path id="MicrosoftYaHei-5668" d="M 300 2691 
L 2825 2691 
Q 2922 2925 2950 3234 
L 3400 3172 
Q 3363 2909 3291 2691 
L 4653 2691 
Q 4403 2872 4125 3047 
L 4381 3328 
Q 4794 3084 5125 2841 
L 4984 2691 
L 6150 2691 
L 6150 2278 
L 3738 2278 
Q 4459 1572 6300 1609 
Q 6150 1353 6044 1128 
Q 5878 1141 5725 1156 
L 5725 -753 
L 5288 -753 
L 5288 -409 
L 3950 -409 
L 3950 -747 
L 3513 -747 
L 3513 1184 
L 5503 1184 
Q 3716 1425 3219 2278 
L 3106 2278 
Q 2756 1534 838 1184 
L 2838 1184 
L 2838 -747 
L 2400 -747 
L 2400 -409 
L 1081 -409 
L 1081 -753 
L 644 -753 
L 644 1147 
Q 478 1116 300 1084 
Q 206 1272 56 1528 
Q 2144 1797 2563 2278 
L 300 2278 
L 300 2691 
z
M 3506 4966 
L 5719 4966 
L 5719 3122 
L 5281 3122 
L 5281 3341 
L 3944 3341 
L 3944 3147 
L 3506 3147 
L 3506 4966 
z
M 638 4966 
L 2831 4966 
L 2831 3147 
L 2394 3147 
L 2394 3341 
L 1075 3341 
L 1075 3084 
L 638 3084 
L 638 4966 
z
M 5281 4578 
L 3944 4578 
L 3944 3728 
L 5281 3728 
L 5281 4578 
z
M 2394 4578 
L 1075 4578 
L 1075 3728 
L 2394 3728 
L 2394 4578 
z
M 5288 797 
L 3950 797 
L 3950 -22 
L 5288 -22 
L 5288 797 
z
M 2400 797 
L 1081 797 
L 1081 -22 
L 2400 -22 
L 2400 797 
z
" transform="scale(0.015625)"/>
       <path id="MicrosoftYaHei-4eba" d="M 100 -303 
Q 2825 1272 2981 5222 
L 3531 5222 
Q 3497 4553 3400 3947 
Q 4175 822 6313 -166 
Q 6050 -453 5850 -709 
Q 3994 341 3203 3006 
Q 2519 431 494 -778 
Q 325 -547 100 -303 
z
" transform="scale(0.015625)"/>
       <path id="MicrosoftYaHei-51cf" d="M 3406 -484 
Q 4103 84 4628 878 
Q 4381 1866 4347 3872 
L 2269 3872 
L 2269 2278 
Q 2269 366 1381 -809 
Q 1150 -566 1000 -466 
Q 1831 584 1831 2303 
L 1831 4297 
L 4338 4297 
Q 4331 4800 4331 5278 
L 4788 5278 
Q 4788 4803 4791 4297 
L 6300 4297 
L 6300 3872 
L 4794 3872 
Q 4806 2363 4972 1453 
Q 5403 2256 5688 3253 
L 6138 3097 
Q 5716 1794 5122 813 
Q 5281 250 5488 -47 
Q 5688 -291 5763 53 
Q 5831 422 5881 953 
Q 6175 847 6344 797 
Q 6256 134 6150 -297 
Q 6013 -791 5700 -784 
Q 5431 -791 5194 -478 
Q 4959 -128 4797 316 
Q 4347 -313 3813 -784 
Q 3619 -616 3406 -484 
z
M 2656 2347 
L 4069 2347 
L 4069 509 
L 3069 509 
L 3069 122 
L 2656 122 
L 2656 2347 
z
M 131 16 
Q 519 1059 925 2609 
Q 1163 2497 1388 2409 
Q 1106 1403 638 -153 
L 131 16 
z
M 244 4541 
L 631 4809 
Q 1069 4303 1506 3728 
L 1075 3416 
Q 563 4153 244 4541 
z
M 3656 897 
L 3656 1959 
L 3069 1959 
L 3069 897 
L 3656 897 
z
M 2544 3316 
L 4088 3316 
L 4088 2916 
L 2544 2916 
L 2544 3316 
z
M 5050 5041 
L 5369 5291 
Q 5681 4978 5963 4666 
L 5606 4384 
Q 5350 4709 5050 5041 
z
" transform="scale(0.015625)"/>
       <path id="MicrosoftYaHei-5c11" d="M 1631 4428 
L 2144 4228 
Q 1463 2722 669 1484 
Q 475 1609 200 1766 
Q 994 2916 1631 4428 
z
M 4138 4266 
L 4531 4566 
Q 5531 3491 6331 2528 
L 5881 2166 
Q 5006 3278 4138 4266 
z
M 2925 5284 
L 3463 5284 
L 3463 1359 
L 2925 1359 
L 2925 5284 
z
M 4988 2416 
L 5444 2116 
Q 3631 -216 413 -859 
Q 275 -609 100 -359 
Q 3350 272 4988 2416 
z
" transform="scale(0.015625)"/>
       <path id="MicrosoftYaHei-4f8b" d="M 2381 1841 
L 2631 2191 
Q 2916 1997 3247 1738 
Q 3488 2378 3581 3128 
L 2703 3128 
Q 2350 1984 1831 1291 
Q 1700 1491 1531 1678 
Q 2238 2694 2578 4522 
L 1900 4522 
L 1900 4959 
L 4319 4959 
L 4319 4522 
L 3044 4522 
Q 2947 4009 2828 3559 
L 4044 3559 
L 4044 3128 
Q 3788 666 2038 -822 
Q 1900 -634 1694 -416 
Q 2578 297 3063 1303 
Q 2753 1556 2381 1841 
z
M 88 2291 
Q 894 3659 1281 5322 
L 1744 5234 
Q 1578 4534 1325 3853 
L 1325 -809 
L 900 -809 
L 900 2847 
Q 625 2275 288 1716 
Q 213 1966 88 2291 
z
M 5575 5303 
L 6031 5303 
L 6031 84 
Q 6031 -391 5881 -566 
Q 5750 -728 5356 -734 
Q 5088 -741 4488 -722 
Q 4463 -466 4400 -203 
Q 4881 -253 5188 -253 
Q 5431 -259 5500 -166 
Q 5575 -84 5575 234 
L 5575 5303 
z
M 4913 653 
L 4469 653 
L 4469 4322 
L 4913 4322 
L 4913 653 
z
" transform="scale(0.015625)"/>
       <path id="MicrosoftYaHei-ff08" d="M 5288 -1100 
Q 4172 119 4172 1850 
Q 4172 3603 5288 4838 
L 5825 4838 
Q 4716 3572 4716 1856 
Q 4716 166 5819 -1100 
L 5288 -1100 
z
" transform="scale(0.015625)"/>
       <path id="MicrosoftYaHei-25" d="M 272 3619 
Q 272 4213 589 4563 
Q 906 4913 1444 4913 
Q 1959 4913 2248 4591 
Q 2538 4269 2538 3694 
Q 2538 3122 2219 2765 
Q 1900 2409 1372 2409 
Q 872 2409 572 2740 
Q 272 3072 272 3619 
z
M 753 3650 
Q 753 3247 928 3028 
Q 1103 2809 1406 2809 
Q 1719 2809 1889 3036 
Q 2059 3263 2059 3675 
Q 2059 4078 1892 4298 
Q 1725 4519 1422 4519 
Q 1113 4519 933 4289 
Q 753 4059 753 3650 
z
M 4647 4841 
L 1538 -31 
L 1016 -31 
L 4125 4841 
L 4647 4841 
z
M 3172 1134 
Q 3172 1728 3489 2083 
Q 3806 2438 4341 2438 
Q 4853 2438 5143 2114 
Q 5434 1791 5434 1203 
Q 5434 634 5112 279 
Q 4791 -75 4272 -75 
Q 3769 -75 3470 261 
Q 3172 597 3172 1134 
z
M 3650 1163 
Q 3650 769 3825 548 
Q 4000 328 4303 328 
Q 4616 328 4786 556 
Q 4956 784 4956 1194 
Q 4956 1600 4786 1815 
Q 4616 2031 4319 2031 
Q 4000 2031 3825 1801 
Q 3650 1572 3650 1163 
z
" transform="scale(0.015625)"/>
       <path id="MicrosoftYaHei-ff09" d="M 1113 -1100 
L 575 -1100 
Q 1684 163 1684 1888 
Q 1684 3581 581 4838 
L 1113 4838 
Q 2222 3628 2222 1888 
Q 2222 128 1113 -1100 
z
" transform="scale(0.015625)"/>
      </defs>
      <use xlink:href="#MicrosoftYaHei-76f8"/>
      <use xlink:href="#MicrosoftYaHei-6bd4" transform="translate(100 0)"/>
      <use xlink:href="#MicrosoftYaHei-65e0" transform="translate(200 0)"/>
      <use xlink:href="#MicrosoftYaHei-673a" transform="translate(300 0)"/>
      <use xlink:href="#MicrosoftYaHei-5668" transform="translate(400 0)"/>
      <use xlink:href="#MicrosoftYaHei-4eba" transform="translate(500 0)"/>
      <use xlink:href="#MicrosoftYaHei-51cf" transform="translate(600 0)"/>
      <use xlink:href="#MicrosoftYaHei-5c11" transform="translate(700 0)"/>
      <use xlink:href="#MicrosoftYaHei-6bd4" transform="translate(800 0)"/>
      <use xlink:href="#MicrosoftYaHei-4f8b" transform="translate(900 0)"/>
      <use xlink:href="#MicrosoftYaHei-ff08" transform="translate(1000 0)"/>
      <use xlink:href="#MicrosoftYaHei-25" transform="translate(1100 0)"/>
      <use xlink:href="#MicrosoftYaHei-ff09" transform="translate(1188.964844 0)"/>
     </g>
    </g>
   </g>
   <g id="line2d_37">
    <path d="M 61.659686 163.161662 
L 463.419686 163.161662 
" clip-path="url(#p7d324bb599)" style="fill: none; stroke-dasharray: 4.44,1.92; stroke-dashoffset: 0; stroke: #ee7733; stroke-width: 1.2"/>
   </g>
   <g id="patch_13">
    <path d="M 61.659686 266.369125 
L 61.659686 22.433125 
" style="fill: none; stroke: #000000; stroke-width: 0.8; stroke-linejoin: miter; stroke-linecap: square"/>
   </g>
   <g id="patch_14">
    <path d="M 61.659686 266.369125 
L 463.419686 266.369125 
" style="fill: none; stroke: #000000; stroke-width: 0.8; stroke-linejoin: miter; stroke-linecap: square"/>
   </g>
   <g id="text_20">
    <!-- 排斥力场参数扫描Top10 -->
    <g transform="translate(202.538124 16.433125) scale(0.11 -0.11)">
     <defs>
      <path id="MicrosoftYaHei-6392" d="M 4375 5309 
L 4863 5309 
L 4863 4159 
L 6188 4159 
L 6188 3684 
L 4863 3684 
L 4863 2609 
L 6038 2609 
L 6038 2134 
L 4863 2134 
L 4863 1047 
L 6294 1047 
L 6294 572 
L 4863 572 
L 4863 -841 
L 4375 -841 
L 4375 5309 
z
M 1844 1047 
L 3138 1047 
L 3138 2134 
L 2150 2134 
L 2150 2609 
L 3138 2609 
L 3138 3684 
L 2163 3684 
L 2163 4159 
L 3138 4159 
L 3138 5309 
L 3625 5309 
L 3625 -841 
L 3138 -841 
L 3138 572 
L 1844 572 
L 1844 1047 
z
M 131 4166 
L 875 4166 
L 875 5316 
L 1350 5316 
L 1350 4166 
L 1969 4166 
L 1969 3728 
L 1350 3728 
L 1350 2563 
Q 1650 2716 1938 2872 
Q 1956 2603 1988 2372 
Q 1681 2216 1350 2044 
L 1350 -134 
Q 1350 -772 669 -778 
Q 481 -784 156 -778 
Q 131 -528 75 -259 
Q 419 -284 613 -284 
Q 875 -284 875 3 
L 875 1797 
Q 525 1616 150 1416 
L 88 1966 
Q 491 2144 875 2328 
L 875 3728 
L 131 3728 
L 131 4166 
z
" transform="scale(0.015625)"/>
      <path id="MicrosoftYaHei-65a5" d="M 2125 1903 
Q 2981 1647 3775 1403 
L 3775 2628 
L 1456 2628 
Q 1463 553 506 -872 
Q 325 -647 113 -428 
Q 925 747 925 2534 
L 925 4828 
Q 3356 4916 5706 5122 
L 5781 4634 
Q 3700 4478 1456 4378 
L 1456 3097 
L 6175 3097 
L 6175 2628 
L 4306 2628 
L 4306 1238 
Q 5256 941 6113 659 
L 5919 147 
Q 5100 438 4306 700 
L 4306 -834 
L 3775 -834 
L 3775 875 
Q 2831 1178 1925 1447 
L 2125 1903 
z
" transform="scale(0.015625)"/>
      <path id="MicrosoftYaHei-529b" d="M 400 3916 
L 2425 3916 
Q 2444 4603 2450 5316 
L 2994 5316 
Q 2981 4653 2963 3916 
L 5831 3916 
Q 5756 1472 5688 459 
Q 5606 -616 4538 -628 
Q 4025 -628 3300 -603 
Q 3275 -359 3206 -9 
L 3225 -9 
Q 4038 -84 4488 -78 
Q 5094 -66 5156 591 
Q 5231 1709 5269 3403 
L 2950 3403 
Q 2894 1775 2431 953 
Q 1938 41 506 -803 
Q 331 -578 131 -328 
Q 1488 434 1913 1209 
Q 2353 1913 2406 3403 
L 400 3403 
L 400 3916 
z
" transform="scale(0.015625)"/>
      <path id="MicrosoftYaHei-573a" d="M 4800 4491 
L 2363 4491 
L 2363 4941 
L 5688 4941 
L 5688 4484 
L 3225 2928 
L 6063 2928 
Q 5988 1197 5919 253 
Q 5838 -703 5038 -703 
Q 4763 -703 4194 -684 
Q 4150 -372 4088 -141 
Q 4519 -209 4962 -209 
Q 5406 -209 5450 322 
Q 5513 1103 5575 2478 
L 4906 2478 
Q 4628 375 2963 -853 
Q 2788 -634 2613 -472 
Q 4163 600 4441 2478 
L 3641 2478 
Q 3281 913 1863 -103 
Q 1713 78 1538 259 
Q 2831 1144 3175 2478 
L 2431 2478 
L 2431 2953 
L 4800 4491 
z
M 94 703 
Q 547 888 1006 1088 
L 1006 3247 
L 169 3247 
L 169 3697 
L 1006 3697 
L 1006 5259 
L 1469 5259 
L 1469 3697 
L 2231 3697 
L 2231 3247 
L 1469 3247 
L 1469 1294 
Q 1819 1453 2175 1622 
Q 2188 1359 2231 1153 
Q 1319 741 288 222 
L 94 703 
z
" transform="scale(0.015625)"/>
      <path id="MicrosoftYaHei-53c2" d="M 256 3159 
L 2234 3159 
Q 2428 3391 2600 3641 
Q 2031 3609 1469 3578 
Q 1288 3566 988 3522 
L 825 4003 
Q 1144 4091 1400 4291 
Q 1944 4697 2606 5372 
L 3100 5109 
Q 2394 4497 1738 4034 
Q 2906 4066 4397 4122 
Q 4072 4388 3744 4628 
L 4050 4947 
Q 5006 4278 5606 3772 
L 5256 3397 
Q 5053 3575 4853 3747 
Q 3778 3700 2719 3647 
L 3069 3497 
Q 2944 3322 2813 3159 
L 6144 3159 
L 6144 2741 
L 4353 2741 
Q 5128 1941 6325 1578 
Q 6119 1297 6000 1109 
Q 4644 1697 3828 2741 
L 2453 2741 
Q 1550 1750 363 1116 
Q 231 1328 56 1509 
Q 1091 2009 1841 2741 
L 256 2741 
L 256 3159 
z
M 4969 1016 
L 5313 697 
Q 3525 -509 1019 -891 
Q 906 -666 781 -478 
Q 3331 -59 4969 1016 
z
M 4231 1703 
L 4525 1353 
Q 2813 391 1119 47 
Q 988 341 913 466 
Q 2694 828 4231 1703 
z
M 3556 2453 
L 3863 2128 
Q 2694 1397 1388 1009 
Q 1288 1216 1150 1422 
Q 2344 1734 3556 2453 
z
" transform="scale(0.015625)"/>
      <path id="MicrosoftYaHei-6570" d="M 4175 5303 
L 4675 5228 
Q 4544 4622 4369 4097 
L 6281 4097 
L 6281 3672 
L 5888 3672 
Q 5731 1834 5088 753 
Q 5594 66 6375 -372 
Q 6175 -647 6038 -866 
Q 5275 -372 4769 309 
Q 4194 -403 3400 -928 
Q 3263 -747 3044 -534 
Q 3919 41 4463 772 
Q 3956 1647 3794 2791 
Q 3663 2559 3519 2359 
Q 3394 2541 3206 2759 
Q 3931 3803 4175 5303 
z
M 150 1697 
L 1100 1697 
Q 1238 1934 1369 2184 
L 1819 2041 
Q 1719 1866 1619 1697 
L 3150 1697 
L 3150 1291 
Q 2913 678 2431 216 
Q 2775 53 3131 -109 
L 2856 -541 
Q 2469 -322 2050 -103 
Q 1344 -609 269 -903 
Q 169 -703 56 -466 
Q 969 -259 1600 128 
Q 1063 403 475 691 
Q 675 978 863 1284 
L 150 1284 
L 150 1697 
z
M 219 3847 
L 1656 3847 
L 1656 5247 
L 2119 5247 
L 2119 3847 
L 3319 3847 
L 3319 3434 
L 2119 3434 
L 2119 3053 
L 2306 3266 
Q 2888 2841 3281 2516 
L 2981 2166 
Q 2638 2491 2119 2897 
L 2119 2184 
L 1656 2184 
L 1656 3059 
Q 1088 2466 331 2016 
Q 213 2197 63 2397 
Q 850 2822 1506 3434 
L 219 3434 
L 219 3847 
z
M 5388 3672 
L 4219 3672 
Q 4188 3591 4150 3516 
Q 4263 2191 4775 1247 
Q 5275 2159 5388 3672 
z
M 1088 834 
Q 1531 634 2000 416 
Q 2431 784 2675 1284 
L 1375 1284 
Q 1231 1053 1088 834 
z
M 3038 5091 
L 3425 4834 
Q 3081 4384 2738 4003 
Q 2594 4128 2400 4266 
Q 2725 4647 3038 5091 
z
M 381 4816 
L 738 5059 
Q 1019 4716 1319 4322 
L 931 4047 
Q 656 4453 381 4816 
z
" transform="scale(0.015625)"/>
      <path id="MicrosoftYaHei-626b" d="M 2663 2472 
L 5425 2472 
L 5425 4322 
L 2525 4322 
L 2525 4803 
L 5944 4803 
L 5944 -834 
L 5425 -834 
L 5425 -484 
L 2250 -484 
L 2250 -9 
L 5425 -9 
L 5425 1991 
L 2663 1991 
L 2663 2472 
z
M 75 1953 
Q 566 2091 1031 2231 
L 1031 3591 
L 144 3591 
L 144 4022 
L 1031 4022 
L 1031 5266 
L 1519 5266 
L 1519 4022 
L 2381 4022 
L 2381 3591 
L 1519 3591 
L 1519 2381 
Q 1953 2522 2369 2666 
Q 2375 2347 2381 2166 
Q 1944 2028 1519 1888 
L 1519 -59 
Q 1519 -716 894 -722 
Q 650 -728 238 -722 
Q 200 -459 156 -197 
Q 550 -234 756 -234 
Q 1031 -234 1031 47 
L 1031 1728 
Q 581 1578 144 1428 
L 75 1953 
z
" transform="scale(0.015625)"/>
      <path id="MicrosoftYaHei-63cf" d="M 2250 3041 
L 5981 3041 
L 5981 -809 
L 5506 -809 
L 5506 -422 
L 2725 -422 
L 2725 -809 
L 2250 -809 
L 2250 3041 
z
M 88 2003 
Q 463 2116 888 2263 
L 888 3697 
L 144 3697 
L 144 4122 
L 888 4122 
L 888 5284 
L 1363 5284 
L 1363 4122 
L 2000 4122 
L 2000 3697 
L 1363 3697 
L 1363 2428 
Q 1656 2534 1969 2653 
Q 1975 2347 1981 2159 
Q 1672 2047 1363 1931 
L 1363 -116 
Q 1363 -753 756 -766 
Q 531 -772 169 -766 
Q 131 -503 88 -247 
Q 431 -284 644 -284 
Q 888 -284 888 -28 
L 888 1756 
Q 522 1619 156 1478 
L 88 2003 
z
M 4700 5291 
L 5156 5291 
L 5156 4503 
L 6300 4503 
L 6300 4066 
L 5156 4066 
L 5156 3297 
L 4700 3297 
L 4700 4066 
L 3525 4066 
L 3525 3297 
L 3069 3297 
L 3069 4066 
L 2075 4066 
L 2075 4503 
L 3069 4503 
L 3069 5284 
L 3525 5284 
L 3525 4503 
L 4700 4503 
L 4700 5291 
z
M 4344 -9 
L 5506 -9 
L 5506 1109 
L 4344 1109 
L 4344 -9 
z
M 2725 -9 
L 3881 -9 
L 3881 1109 
L 2725 1109 
L 2725 -9 
z
M 5506 2616 
L 4344 2616 
L 4344 1509 
L 5506 1509 
L 5506 2616 
z
M 2725 1509 
L 3881 1509 
L 3881 2616 
L 2725 2616 
L 2725 1509 
z
" transform="scale(0.015625)"/>
      <path id="MicrosoftYaHei-54" d="M 3550 4284 
L 2153 4284 
L 2153 0 
L 1525 0 
L 1525 4284 
L 134 4284 
L 134 4841 
L 3550 4841 
L 3550 4284 
z
" transform="scale(0.015625)"/>
      <path id="MicrosoftYaHei-6f" d="M 316 1691 
Q 316 2547 794 3042 
Q 1272 3538 2091 3538 
Q 2869 3538 3311 3061 
Q 3753 2584 3753 1744 
Q 3753 925 3281 422 
Q 2809 -81 2016 -81 
Q 1241 -81 778 406 
Q 316 894 316 1691 
z
M 941 1709 
Q 941 1113 1242 769 
Q 1544 425 2053 425 
Q 2578 425 2853 761 
Q 3128 1097 3128 1725 
Q 3128 2356 2853 2693 
Q 2578 3031 2053 3031 
Q 1538 3031 1239 2678 
Q 941 2325 941 1709 
z
" transform="scale(0.015625)"/>
     </defs>
     <use xlink:href="#MicrosoftYaHei-6392"/>
     <use xlink:href="#MicrosoftYaHei-65a5" transform="translate(100 0)"/>
     <use xlink:href="#MicrosoftYaHei-529b" transform="translate(200 0)"/>
     <use xlink:href="#MicrosoftYaHei-573a" transform="translate(300 0)"/>
     <use xlink:href="#MicrosoftYaHei-53c2" transform="translate(400 0)"/>
     <use xlink:href="#MicrosoftYaHei-6570" transform="translate(500 0)"/>
     <use xlink:href="#MicrosoftYaHei-626b" transform="translate(600 0)"/>
     <use xlink:href="#MicrosoftYaHei-63cf" transform="translate(700 0)"/>
     <use xlink:href="#MicrosoftYaHei-54" transform="translate(800 0)"/>
     <use xlink:href="#MicrosoftYaHei-6f" transform="translate(846.199219 0)"/>
     <use xlink:href="#MicrosoftYaHei-70" transform="translate(909.773438 0)"/>
     <use xlink:href="#MicrosoftYaHei-31" transform="translate(973.640625 0)"/>
     <use xlink:href="#MicrosoftYaHei-30" transform="translate(1032.283203 0)"/>
    </g>
   </g>
   <g id="legend_1">
    <g id="patch_15">
     <path d="M 400.722889 42.390859 
L 457.469686 42.390859 
Q 459.169686 42.390859 459.169686 40.690859 
L 459.169686 28.383125 
Q 459.169686 26.683125 457.469686 26.683125 
L 400.722889 26.683125 
Q 399.022889 26.683125 399.022889 28.383125 
L 399.022889 40.690859 
Q 399.022889 42.390859 400.722889 42.390859 
z
" style="fill: #ffffff; opacity: 0.8; stroke: #cccccc; stroke-linejoin: miter"/>
    </g>
    <g id="line2d_38">
     <path d="M 402.422889 33.902812 
L 410.922889 33.902812 
L 419.422889 33.902812 
" style="fill: none; stroke-dasharray: 4.44,1.92; stroke-dashoffset: 0; stroke: #ee7733; stroke-width: 1.2"/>
    </g>
    <g id="text_21">
     <!-- 8%目标 -->
     <g transform="translate(426.222889 36.877812) scale(0.085 -0.085)">
      <defs>
       <path id="MicrosoftYaHei-76ee" d="M 944 5016 
L 5469 5016 
L 5469 -772 
L 4938 -772 
L 4938 -303 
L 1475 -303 
L 1475 -772 
L 944 -772 
L 944 5016 
z
M 1475 1341 
L 1475 159 
L 4938 159 
L 4938 1341 
L 1475 1341 
z
M 1475 2947 
L 1475 1778 
L 4938 1778 
L 4938 2947 
L 1475 2947 
z
M 1475 4553 
L 1475 3384 
L 4938 3384 
L 4938 4553 
L 1475 4553 
z
" transform="scale(0.015625)"/>
       <path id="MicrosoftYaHei-6807" d="M 75 1409 
Q 769 2478 1025 3647 
L 119 3647 
L 119 4072 
L 1069 4072 
L 1069 5297 
L 1506 5297 
L 1506 4072 
L 2356 4072 
L 2356 3647 
L 1506 3647 
L 1506 2541 
L 1775 2822 
Q 2175 2478 2481 2159 
L 2150 1816 
Q 1850 2156 1506 2503 
L 1506 -797 
L 1069 -797 
L 1069 2588 
Q 738 1513 281 859 
Q 194 1128 75 1409 
z
M 2350 3097 
L 6250 3097 
L 6250 2659 
L 4525 2659 
L 4525 47 
Q 4525 -734 3806 -734 
Q 3469 -741 2975 -728 
Q 2944 -503 2888 -209 
Q 3319 -259 3675 -259 
Q 4050 -259 4050 203 
L 4050 2659 
L 2350 2659 
L 2350 3097 
z
M 2638 4928 
L 5963 4928 
L 5963 4491 
L 2638 4491 
L 2638 4928 
z
M 4938 1853 
L 5381 2066 
Q 5975 928 6369 72 
L 5869 -147 
Q 5463 822 4938 1853 
z
M 2931 2066 
L 3400 1878 
Q 2888 734 2381 -153 
Q 2188 -41 1925 66 
Q 2425 872 2931 2066 
z
" transform="scale(0.015625)"/>
      </defs>
      <use xlink:href="#MicrosoftYaHei-38"/>
      <use xlink:href="#MicrosoftYaHei-25" transform="translate(58.642578 0)"/>
      <use xlink:href="#MicrosoftYaHei-76ee" transform="translate(147.607422 0)"/>
      <use xlink:href="#MicrosoftYaHei-6807" transform="translate(247.607422 0)"/>
     </g>
    </g>
   </g>
  </g>
 </g>
 <defs>
  <clipPath id="p7d324bb599">
   <rect x="61.659686" y="22.433125" width="401.76" height="243.936"/>
  </clipPath>
 </defs>
</svg>
